<svg width="480" height="679" viewBox="0 0 480 679" fill="none" xmlns="http://www.w3.org/2000/svg">
<path d="M379 339.06C379 285.346 364.861 232.578 338.004 186.06C311.147 139.542 272.518 100.913 226 74.056L73 339.06H379Z" fill="#00852A"/>
<path d="M226 74.056C179.482 47.1989 126.714 33.0598 72.9999 33.0598C19.2857 33.0598 -33.4822 47.199 -80.0001 74.0561L73 339.06L226 74.056Z" fill="#00A334"/>
<path d="M-80 604.064C-33.4821 630.921 19.2858 645.06 73 645.06C126.714 645.06 179.482 630.921 226 604.064L73 339.06L-80 604.064Z" fill="#003D13"/>
<path d="M226 604.064C272.518 577.206 311.147 538.578 338.004 492.06C364.861 445.542 379 392.774 379 339.06H73L226 604.064Z" fill="#007024"/>
<g filter="url(#filter0_d_254_202)">
<circle cx="72.9999" cy="339.06" r="130.37" fill="white"/>
</g>
<circle cx="20.2102" cy="20.2102" r="20.2102" transform="matrix(1 0 0 -1 52.7898 359.27)" fill="#1FA94A"/>
<g clip-path="url(#clip0_254_202)">
<path d="M69.9999 99.2197C56.2807 99.2197 45.1599 110.34 45.1599 124.06C45.1599 137.779 56.2807 148.9 69.9999 148.9C71.146 148.9 72.2721 148.815 73.377 148.663C73.3566 148.767 73.3475 148.883 73.3475 149.007C73.3475 150.087 74.3199 151.06 75.3999 151.06H94.9475C96.0275 151.06 96.9999 150.195 96.9999 149.007C96.9999 148.791 97.0003 148.683 96.8923 148.467L90.7899 137.619C93.3412 133.718 94.8399 129.068 94.8399 124.06C94.8399 110.34 83.7192 99.2197 69.9999 99.2197ZM68.9199 107.86H71.1348V110.885C76.3188 111.101 78.4783 115.528 78.2623 118.552H75.9948C75.8868 116.716 75.2388 112.612 70.0548 112.612C64.9788 112.612 64.0051 115.528 64.0051 118.012C64.0051 125.464 78.8023 120.495 78.8023 130.215C78.8023 131.295 78.3159 136.695 71.0799 137.235V140.26H68.9199V137.235C66.0039 136.911 61.4135 135.941 61.1975 128.705H63.4651C63.2491 135.509 69.8388 135.507 70.0548 135.507C76.4268 135.507 76.6423 131.187 76.6423 130.215C76.6423 122.547 61.8451 127.947 61.8451 117.795C61.8451 115.743 62.8719 111.209 68.9199 110.885V107.86ZM85.1199 131.835C85.1199 131.943 85.2275 132.052 85.2275 132.052L94.6248 148.9H75.7248L85.0123 132.052C85.0123 132.052 85.1199 131.943 85.1199 131.835ZM84.2551 137.02C84.1471 137.02 84.0399 137.127 84.0399 137.235V143.285C84.0399 143.393 84.1471 143.5 84.2551 143.5H85.9848C86.0928 143.5 86.1999 143.393 86.1999 143.285V137.235C86.1999 137.127 86.0928 137.02 85.9848 137.02H84.2551ZM84.2551 145.66C84.1471 145.66 84.0399 145.767 84.0399 145.875V147.605C84.0399 147.713 84.1471 147.82 84.2551 147.82H85.9848C86.0928 147.82 86.1999 147.713 86.1999 147.605V145.875C86.1999 145.767 86.0928 145.66 85.9848 145.66H84.2551Z" fill="white"/>
</g>
<path d="M278.237 444.267L276.492 443.831C276.25 442.207 275.828 440.624 275.232 439.108L276.522 437.86C277.22 437.186 277.369 436.128 276.884 435.283L276.141 433.998C275.655 433.156 274.662 432.758 273.729 433.022L271.981 433.522C270.964 432.249 269.81 431.095 268.538 430.079L269.038 428.331C269.305 427.398 268.904 426.407 268.064 425.921L266.776 425.178C265.934 424.692 264.874 424.842 264.202 425.54L262.952 426.83C261.433 426.234 259.851 425.812 258.23 425.571L257.793 423.819C257.556 422.876 256.712 422.22 255.742 422.22H254.257C253.286 422.22 252.442 422.876 252.207 423.819L251.77 425.568C250.146 425.81 248.564 426.232 247.048 426.828L245.799 425.539C245.127 424.841 244.069 424.693 243.223 425.176L241.935 425.919C241.094 426.405 240.693 427.396 240.961 428.329L241.461 430.076C240.189 431.092 239.034 432.246 238.018 433.519L236.268 433.019C235.332 432.754 234.343 433.154 233.859 433.994L233.116 435.281C232.631 436.123 232.78 437.182 233.478 437.856L234.769 439.104C234.173 440.621 233.751 442.204 233.509 443.827L231.765 444.264C230.82 444.5 230.16 445.344 230.16 446.318V447.803C230.16 448.776 230.819 449.619 231.759 449.852L233.508 450.289C233.75 451.912 234.172 453.495 234.768 455.012L233.478 456.259C232.78 456.934 232.631 457.993 233.116 458.836L233.859 460.121C234.345 460.964 235.336 461.362 236.271 461.098L238.019 460.598C239.035 461.871 240.19 463.024 241.462 464.041L240.962 465.788C240.695 466.721 241.096 467.713 241.936 468.199L243.224 468.942C244.068 469.428 245.127 469.28 245.798 468.58L247.048 467.289C248.566 467.885 250.149 468.308 251.77 468.548L252.207 470.3C252.444 471.243 253.288 471.9 254.257 471.9H255.742C256.713 471.9 257.556 471.242 257.792 470.299L258.229 468.552C259.85 468.31 261.433 467.888 262.952 467.291L264.199 468.581C264.873 469.28 265.932 469.428 266.776 468.944L268.064 468.201C268.905 467.715 269.306 466.723 269.038 465.79L268.538 464.044C269.81 463.028 270.964 461.873 271.981 460.601L273.73 461.101C274.666 461.365 275.656 460.966 276.14 460.126L276.883 458.838C277.368 457.997 277.219 456.937 276.521 456.263L275.229 455.015C275.826 453.497 276.249 451.913 276.49 450.292L278.234 449.856C279.18 449.619 279.84 448.776 279.84 447.803V446.318C279.84 445.344 279.181 444.501 278.237 444.267ZM241.915 452.12C241.307 450.548 240.96 448.846 240.96 447.06C240.96 445.273 241.307 443.571 241.915 442L248.632 445.878C248.562 446.262 248.52 446.656 248.52 447.06C248.52 447.464 248.562 447.858 248.632 448.241L241.915 452.12ZM252.84 460.916C249.31 460.37 246.216 458.522 244.071 455.863L250.793 451.982C251.392 452.494 252.084 452.895 252.84 453.163V460.916ZM252.84 440.957C252.083 441.224 251.391 441.625 250.793 442.137L244.071 438.257C246.216 435.598 249.312 433.75 252.84 433.203V440.957ZM257.16 433.203C260.689 433.75 263.784 435.598 265.928 438.257L259.207 442.137C258.608 441.625 257.916 441.224 257.16 440.957V433.203ZM257.16 460.916V453.163C257.917 452.895 258.609 452.494 259.207 451.982L265.928 455.863C263.784 458.522 260.688 460.37 257.16 460.916ZM268.085 452.12L261.368 448.241C261.438 447.858 261.48 447.464 261.48 447.06C261.48 446.656 261.438 446.262 261.368 445.878L268.085 442C268.693 443.571 269.04 445.273 269.04 447.06C269.04 448.846 268.693 450.548 268.085 452.12Z" fill="white"/>
<path d="M250.68 213.3C240.53 213.3 232.32 221.509 232.32 231.66C232.32 241.81 240.53 250.02 250.68 250.02C254.304 250.02 257.658 248.957 260.501 247.151L273.765 260.415L278.355 255.825L265.26 242.764C267.614 239.675 269.04 235.849 269.04 231.66C269.04 221.509 260.83 213.3 250.68 213.3ZM250.68 217.62C258.455 217.62 264.72 223.885 264.72 231.66C264.72 239.435 258.455 245.7 250.68 245.7C242.905 245.7 236.64 239.435 236.64 231.66C236.64 223.885 242.905 217.62 250.68 217.62Z" fill="white"/>
<g clip-path="url(#clip1_254_202)">
<path d="M57.0401 532.62C56.4453 532.62 55.9601 533.105 55.9601 533.7C55.9601 534.295 56.4453 534.78 57.0401 534.78H64.1276L45.4639 553.444C45.042 553.865 45.042 554.574 45.4639 554.996C45.6748 555.207 45.9617 555.3 46.2401 555.3C46.5186 555.3 46.8054 555.207 47.0164 554.996L65.6801 536.332V543.42C65.6801 544.015 66.1653 544.5 66.7601 544.5C67.355 544.5 67.8401 544.015 67.8401 543.42V532.62H57.0401ZM79.7201 536.94V579.06H94.8401V536.94H79.7201ZM62.4401 550.98V579.06H77.5601V550.98H62.4401ZM45.1601 562.86V579.06H60.2801V562.86H45.1601Z" fill="white"/>
</g>
<defs>
<filter id="filter0_d_254_202" x="-333.37" y="-67.3103" width="812.74" height="812.74" filterUnits="userSpaceOnUse" color-interpolation-filters="sRGB">
<feFlood flood-opacity="0" result="BackgroundImageFix"/>
<feColorMatrix in="SourceAlpha" type="matrix" values="0 0 0 0 0 0 0 0 0 0 0 0 0 0 0 0 0 0 127 0" result="hardAlpha"/>
<feMorphology radius="38" operator="dilate" in="SourceAlpha" result="effect1_dropShadow_254_202"/>
<feOffset/>
<feGaussianBlur stdDeviation="119"/>
<feComposite in2="hardAlpha" operator="out"/>
<feColorMatrix type="matrix" values="0 0 0 0 0 0 0 0 0 0 0 0 0 0 0 0 0 0 0.25 0"/>
<feBlend mode="normal" in2="BackgroundImageFix" result="effect1_dropShadow_254_202"/>
<feBlend mode="normal" in="SourceGraphic" in2="effect1_dropShadow_254_202" result="shape"/>
</filter>
<clipPath id="clip0_254_202">
<rect width="54" height="54" fill="white" transform="translate(43 97.0598)"/>
</clipPath>
<clipPath id="clip1_254_202">
<rect width="54" height="54" fill="white" transform="translate(43 525.06)"/>
</clipPath>
</defs>
</svg>
