<svg width="54" height="59" viewBox="0 0 54 59" fill="none" xmlns="http://www.w3.org/2000/svg">
<path d="M27.9603 0.999104C27.3065 0.333632 26.2341 0.333632 25.5803 0.999104L18.227 8.48394L0.717812 25.9931C-0.333097 27.044 0.41116 28.841 1.89738 28.841H14.0476C14.4901 28.841 14.9143 28.6652 15.2272 28.3523L25.5906 17.9889C26.2421 17.3374 27.2983 17.3374 27.9498 17.9889L38.3133 28.3523C38.6261 28.6652 39.0505 28.841 39.4928 28.841H51.6431C53.1293 28.841 53.8735 27.044 52.8226 25.9931L35.3135 8.48394L27.9603 0.999104Z" fill="#888888"/>
<path d="M35.3135 50.5187L52.8125 33.0198C53.8672 31.965 53.1202 30.1617 51.6286 30.1617H39.4954C39.0513 30.1617 38.6255 30.3381 38.3116 30.6521L27.9541 41.0096C27.3003 41.6634 26.2402 41.6634 25.5864 41.0096L15.2289 30.6521C14.9149 30.3381 14.4891 30.1617 14.0451 30.1617H1.91188C0.420356 30.1617 -0.326642 31.965 0.728069 33.0197L18.227 50.5186L25.576 57.9991C26.2321 58.667 27.3085 58.667 27.9646 57.9991L35.3135 50.5187Z" fill="#888888"/>
<path d="M1.91188 30.1617C1.45729 30.1617 1.07247 30.3298 0.786161 30.5925L2.20845 34.5002L5.44049 37.7323L2.68505 30.1617H1.91188Z" fill="#888888"/>
<path d="M4.25482 30.1617L7.90855 40.2003L11.1406 43.4323L6.31048 30.1617H4.25482Z" fill="#888888"/>
<path d="M7.88026 30.1617L13.6087 45.9003L16.8406 49.1324L9.93592 30.1617H7.88026Z" fill="#888888"/>
<path d="M11.5057 30.1617L19.3199 51.6312L22.5854 54.955L13.5614 30.1617H11.5057Z" fill="#888888"/>
<path d="M15.3557 30.7789L25.079 57.4933L25.576 57.9991C26.0795 58.5116 26.8299 58.6294 27.4485 58.3554L18.5878 34.0109L15.3557 30.7789Z" fill="#888888"/>
<path d="M21.0558 36.479L28.6387 57.3129L30.1386 55.7861L24.2878 39.711L21.0558 36.479Z" fill="#888888"/>
<path d="M27.9541 41.0096C27.5582 41.4054 27.0135 41.56 26.5001 41.4765L31.2841 54.6202L32.784 53.0934L28.2706 40.6929L27.9541 41.0096Z" fill="#888888"/>
<path d="M29.4215 39.5421L33.9294 51.9275L35.3135 50.5187L35.43 50.4022L30.9286 38.035L29.4215 39.5421Z" fill="#888888"/>
<path d="M32.0795 36.8841L36.5809 49.2514L38.088 47.7442L33.5866 35.377L32.0795 36.8841Z" fill="#888888"/>
<path d="M34.7375 34.2261L39.2389 46.5934L40.746 45.0862L36.2446 32.719L34.7375 34.2261Z" fill="#888888"/>
<path d="M38.3116 30.6521L37.3955 31.5681L41.8968 43.9354L43.4039 42.4283L38.9705 30.2477C38.7247 30.329 38.4981 30.4657 38.3116 30.6521Z" fill="#888888"/>
<path d="M40.5091 30.1617L44.5548 41.2774L46.062 39.7703L42.5647 30.1617H40.5091Z" fill="#888888"/>
<path d="M44.1345 30.1617L47.2128 38.6194L48.72 37.1123L46.1901 30.1617H44.1345Z" fill="#888888"/>
<path d="M47.7599 30.1617L49.8708 35.9614L51.378 34.4543L49.8155 30.1617H47.7599Z" fill="#888888"/>
<path d="M51.6286 30.1617H51.3853L52.5288 33.3034L52.8125 33.0198C53.8672 31.965 53.1202 30.1617 51.6286 30.1617Z" fill="#888888"/>
<path d="M51.6199 28.839C52.0745 28.839 52.4593 28.671 52.7456 28.4082L51.3233 24.5005L48.0913 21.2685L50.8467 28.839H51.6199Z" fill="#888888"/>
<path d="M49.2769 28.839L45.6232 18.8005L42.3912 15.5685L47.2213 28.839H49.2769Z" fill="#888888"/>
<path d="M45.6515 28.839L39.9231 13.1004L36.6911 9.86838L43.5958 28.839H45.6515Z" fill="#888888"/>
<path d="M42.0261 28.839L34.2119 7.36955L30.9464 4.04572L39.9704 28.839H42.0261Z" fill="#888888"/>
<path d="M38.176 28.2219L28.4528 1.50745L27.9557 1.00158C27.4523 0.489079 26.7019 0.371388 26.0833 0.645411L34.944 24.9899L38.176 28.2219Z" fill="#888888"/>
<path d="M32.4759 22.5218L24.893 1.68792L23.393 3.21463L29.2439 19.2899L32.4759 22.5218Z" fill="#888888"/>
<path d="M25.5776 17.9912C25.9735 17.5953 26.5182 17.4408 27.0316 17.5243L22.2476 4.38058L20.7477 5.90738L25.2611 18.3078L25.5776 17.9912Z" fill="#888888"/>
<path d="M24.1102 19.4587L19.6022 7.07324L18.2182 8.48209L18.1018 8.59854L22.6031 20.9657L24.1102 19.4587Z" fill="#888888"/>
<path d="M21.4522 22.1167L16.9509 9.74945L15.4438 11.2565L19.9451 23.6237L21.4522 22.1167Z" fill="#888888"/>
<path d="M18.7942 24.7747L14.2929 12.4074L12.7858 13.9145L17.2871 26.2817L18.7942 24.7747Z" fill="#888888"/>
<path d="M15.2202 28.3487L16.1362 27.4327L11.6349 15.0654L10.1278 16.5724L14.5612 28.7531C14.8071 28.6718 15.0336 28.5353 15.2202 28.3487Z" fill="#888888"/>
<path d="M13.0227 28.839L8.97688 17.7234L7.4698 19.2304L10.967 28.839H13.0227Z" fill="#888888"/>
<path d="M9.39724 28.839L6.31888 20.3814L4.8118 21.8884L7.34159 28.839H9.39724Z" fill="#888888"/>
<path d="M5.77181 28.839L3.66089 23.0394L2.1538 24.5464L3.71615 28.839H5.77181Z" fill="#888888"/>
<path d="M1.90312 28.839H2.14646L1.00298 25.6974L0.719315 25.981C-0.335396 27.0357 0.411603 28.839 1.90312 28.839Z" fill="#888888"/>
<path d="M26.7703 37.1771C31.0094 37.1771 34.446 33.7405 34.446 29.5013H19.0945C19.0945 33.7405 22.5311 37.1771 26.7703 37.1771Z" fill="#888888"/>
<path d="M26.7703 21.8256C22.5311 21.8256 19.0945 25.2621 19.0945 29.5013H34.446C34.446 25.2621 31.0094 21.8256 26.7703 21.8256Z" fill="#888888"/>
</svg>
