<svg width="95" height="61" viewBox="0 0 95 61" fill="none" xmlns="http://www.w3.org/2000/svg">
<path d="M19.6709 34.0472L1.24651 52.4716L47.3891 54.6922L65.8134 36.2678L19.6709 34.0472ZM9.04584 49.4583L21.005 37.4991L58.0141 39.281L46.0549 51.2402L9.04584 49.4583Z" fill="#888888"/>
<path d="M22.7022 0L18.739 33.1154L0.314697 51.5397L1.18298 44.2941C3.18878 27.5367 10.7673 11.935 22.7022 0Z" fill="#888888"/>
<path d="M47.2409 6.30779L28.8165 24.7321L74.9591 26.9527L93.3834 8.52839L47.2409 6.30779ZM36.6159 21.7189L48.572 9.76274L85.5841 11.5416L73.6249 23.5008L36.6159 21.7189Z" fill="#888888"/>
<path d="M94.3152 9.46025L93.4469 16.7059C92.4455 25.0831 90.0464 33.1759 86.4099 40.6606C82.7765 48.1483 77.8966 55.031 71.9276 61L75.8908 27.8846L94.3152 9.46025Z" fill="#888888"/>
</svg>
