<svg width="62" height="47" viewBox="0 0 62 47" fill="none" xmlns="http://www.w3.org/2000/svg">
<path d="M26.5719 36.3238L16.4823 36.3238L16.4823 10.8492C16.4823 10.1823 16.5436 9.53344 16.6661 8.90261C16.6841 8.8125 16.7058 8.72238 16.7238 8.63226C17.0338 7.212 17.6358 5.90349 18.4649 4.7644C20.3501 2.18341 23.3925 0.499998 26.8242 0.499998L61.7468 0.5C58.8342 5.61871 53.3406 8.90262 47.3171 8.90261L30.793 8.90261C27.5308 8.90261 24.8813 11.5521 24.8813 14.8144L24.8813 32.1892C24.8813 33.7969 25.5265 35.2568 26.5719 36.3238Z" fill="#888888"/>
<path d="M61.7468 46.4999L42.2525 46.4999C44.9272 44.6904 46.8809 41.8607 47.519 38.5083C47.5442 38.3749 47.5694 38.2415 47.5875 38.1045C53.5064 38.1982 58.8775 41.4605 61.7468 46.4999Z" fill="#888888"/>
<path d="M35.2305 46.5L0.315081 46.5C3.2277 41.3849 8.72131 38.101 14.7448 38.101L31.2689 38.101C34.5275 38.101 37.1806 35.4479 37.1806 32.1892L37.1806 14.8145C37.1806 13.2068 36.5354 11.7468 35.49 10.6798L45.5796 10.6798L45.5796 36.1544C45.5796 36.8213 45.5184 37.4702 45.3958 38.101C44.4838 42.8772 40.2735 46.5 35.2305 46.5Z" fill="#888888"/>
<path d="M14.4744 8.89901C8.55548 8.80528 3.18443 5.54301 0.315071 0.499997L19.8166 0.499998C18.6343 1.30025 17.5817 2.30957 16.7202 3.49192C15.6928 4.89776 14.9827 6.47304 14.6114 8.16726L14.597 8.22492C14.579 8.31504 14.561 8.40516 14.5429 8.49167C14.5177 8.62504 14.4925 8.76203 14.4744 8.89901Z" fill="#888888"/>
</svg>
