<svg width="59" height="59" viewBox="0 0 59 59" fill="none" xmlns="http://www.w3.org/2000/svg">
<path d="M52.4694 19.3586C30.5536 19.6953 11.3307 27.585 0.766068 32.9285C1.52225 39.2391 4.34366 45.1592 8.77442 49.7209C27.9666 28.7536 52.4694 19.3586 52.4694 19.3586Z" fill="#888888"/>
<path d="M9.01176 43.5237C7.30854 41.0179 6.06388 38.2078 5.35624 35.2585C9.93822 33.0798 16.2336 30.4174 23.5523 28.2031C25.8903 27.4956 28.2197 26.8666 30.5372 26.3163C24.0735 30.4736 16.3215 36.2054 9.01176 43.5237Z" fill="#888888"/>
<path d="M57.9351 23.5301C41.6942 30.797 26.9443 41.4171 14.9225 54.532C16.4397 55.417 18.0582 56.1775 19.7712 56.792C22.9577 57.935 26.2123 58.484 29.4153 58.5C34.8546 55.5613 40.6222 51.6733 42.782 47.5502C42.782 47.5502 40.8569 52.6548 37.7548 57.3125C46.3203 54.7813 53.6048 48.3417 56.8515 39.2905C58.7337 34.0434 59.0094 28.6112 57.9351 23.5301Z" fill="#888888"/>
<path d="M39.3501 2.21025C29.5143 -1.31792 19.0283 0.79433 11.4261 6.87567C17.5892 4.91232 22.3821 4.94848 22.3821 4.94848C13.0288 8.33309 6.58584 13.5189 3.95893 15.8897C3.31478 17.1047 2.74776 18.3793 2.26979 19.7117C1.49713 21.8656 0.996096 24.0507 0.746826 26.2299C17.2419 17.6966 36.1206 13.8471 54.6626 14.9948C51.352 9.25955 46.0715 4.62128 39.3501 2.21025Z" fill="#888888"/>
</svg>
