<svg width="76" height="45" viewBox="0 0 76 45" fill="none" xmlns="http://www.w3.org/2000/svg">
<path d="M75.7743 22.4991C75.7741 16.49 73.4336 10.8392 69.1844 6.58997C64.9354 2.3395 59.2846 6.4367e-07 53.2737 6.4367e-07C48.5771 6.4367e-07 44.0988 1.42934 40.3367 4.08456C39.9563 4.3522 39.5844 4.63241 39.2206 4.92623C38.8621 5.21325 38.5106 5.51388 38.1677 5.82558C37.8945 6.07257 37.6266 6.32787 37.3643 6.59022L21.4539 22.4996L35.2023 36.2465C35.4835 35.998 35.7597 35.7385 36.0301 35.4696L38.1677 33.332L27.3368 22.4996L40.3055 9.53094C40.5762 9.2618 40.8521 9.00248 41.1333 8.75397C41.4808 8.44631 41.8363 8.15525 42.2014 7.8793C42.5747 7.59505 42.9564 7.32867 43.3452 7.08042C46.3559 5.13772 49.8155 4.16864 53.2739 4.16864C57.9708 4.16839 62.6674 5.95599 66.2436 9.5312C73.3938 16.6829 73.3938 28.3179 66.2436 35.4696C62.6672 39.0445 57.9706 40.8321 53.2739 40.8321C49.8156 40.8321 46.3557 39.8628 43.3452 37.9203L40.9125 40.3515C40.7217 40.5423 40.5281 40.7304 40.3345 40.9129C44.0962 43.5684 48.5758 45 53.2739 45C59.2848 45 64.9354 42.6592 69.1846 38.41C73.4333 34.1608 75.7743 28.51 75.7743 22.4991Z" fill="#888888"/>
<path d="M38.1677 11.6698L48.9983 22.4994L36.0301 35.469C35.7597 35.7379 35.4835 35.9975 35.2023 36.246C34.8548 36.5537 34.4993 36.8458 34.1342 37.1207C33.7621 37.4047 33.3819 37.6711 32.9932 37.9198C29.9812 39.8613 26.5201 40.8319 23.0617 40.8319C18.3651 40.8319 13.6682 39.044 10.092 35.4693C2.94208 28.3179 2.94183 16.6826 10.092 9.53094C13.6685 5.95599 18.3651 4.16839 23.0617 4.16839C26.5201 4.16839 29.9797 5.13898 32.9919 7.08016L35.4233 4.64877C35.6157 4.45641 35.8093 4.26833 36.0027 4.08705C32.2424 1.43058 27.7613 2.03341e-08 23.0617 2.03341e-08C17.051 -0.000251856 11.4 2.33949 7.151 6.58995C2.90179 10.8392 0.561035 16.4903 0.561035 22.4991C0.561287 28.5097 2.90181 34.1606 7.15101 38.4098C11.4002 42.659 17.0513 44.9997 23.0617 44.9997C28.7002 44.9995 34.023 42.9392 38.1679 39.1744C38.3009 39.0536 38.4328 38.9317 38.5632 38.8078C38.6335 38.7406 38.7032 38.6734 38.7734 38.6046C38.8394 38.5402 38.9051 38.4755 38.9711 38.4095V38.408L54.8818 22.4989L41.1333 8.75397C40.8521 9.00248 40.5762 9.2618 40.3055 9.53094L38.1677 11.6698Z" fill="#888888"/>
</svg>
