<svg width="539" height="514" viewBox="0 0 539 514" fill="none" xmlns="http://www.w3.org/2000/svg">
<path d="M402.936 98.7069C402.936 98.7069 397.33 108.543 401.481 110.231C403.833 111.199 405.649 106.767 405.649 106.767C405.649 106.767 407.869 110.395 410.434 109.499C415.083 107.86 407.153 98.1167 407.153 98.1167L402.936 98.7069Z" fill="#FA6D00" stroke="#1C1C16" stroke-width="2" stroke-miterlimit="10"/>
<path d="M440.947 40.1716C444.83 66.8546 430.205 96.226 407.371 99.5484C384.537 102.871 362.124 78.8819 358.247 52.1989C354.369 25.516 370.454 6.24832 393.299 2.92593C416.144 -0.396461 437.053 13.4942 440.947 40.1716Z" fill="#FA6D00"/>
<path d="M420.099 7.64185C423.819 13.5299 426.226 20.1502 427.154 27.0516C431.037 53.7345 416.412 83.106 393.578 86.4229C385.429 87.6087 377.345 85.33 370.137 80.6634C379.626 93.4065 393.42 101.554 407.372 99.5485C430.206 96.2261 444.83 66.8547 440.947 40.1717C438.694 24.7784 430.769 13.6746 420.099 7.64185Z" fill="#D65D00"/>
<path d="M440.947 40.1717C444.83 66.8546 430.205 96.226 407.371 99.5484C384.537 102.871 362.124 78.8819 358.247 52.1989C354.369 25.516 370.454 6.24832 393.299 2.92593C416.144 -0.396461 437.053 13.4942 440.947 40.1717Z" stroke="#1C1C16" stroke-width="2" stroke-miterlimit="10"/>
<path d="M404.888 104.275L404.894 230.466" stroke="#1C1C16" stroke-width="2" stroke-miterlimit="10"/>
<path d="M468.08 154.893C468.08 154.893 457.946 159.903 460.423 163.636C461.834 165.75 465.811 163.089 465.811 163.089C465.811 163.089 465.63 167.335 468.272 168.007C473.052 169.226 471.914 156.74 471.914 156.74L468.08 154.893Z" fill="#1FA94A" stroke="#1C1C16" stroke-width="2" stroke-miterlimit="10"/>
<path d="M532.338 127.565C520.64 151.86 492.085 168.056 471.291 158.062C450.496 148.067 445.328 115.669 457.027 91.3956C468.725 67.1225 492.85 60.0952 513.65 70.0842C534.449 80.0732 544.037 103.264 532.338 127.565Z" fill="#1FA94A"/>
<path d="M533.23 88.9365C533.027 95.8986 531.324 102.735 528.237 108.98C516.544 133.281 487.989 149.472 467.189 139.477C459.773 135.914 454.353 129.494 450.973 121.614C451.728 137.461 458.586 151.958 471.291 158.062C492.074 168.056 520.64 151.86 532.339 127.565C539.088 113.543 538.716 99.9146 533.23 88.9365Z" fill="#1FA94A"/>
<path d="M533.23 88.9365C533.027 95.8986 531.324 102.735 528.237 108.98C516.544 133.281 487.989 149.472 467.189 139.477C459.773 135.914 454.353 129.494 450.973 121.614C451.728 137.461 458.586 151.958 471.291 158.062C492.074 168.056 520.64 151.86 532.339 127.565C539.088 113.543 538.716 99.9146 533.23 88.9365Z" fill="black" fill-opacity="0.3"/>
<path d="M532.338 127.565C520.64 151.86 492.085 168.056 471.291 158.062C450.496 148.067 445.328 115.669 457.027 91.3956C468.725 67.1225 492.85 60.0952 513.65 70.0842C534.449 80.0732 544.037 103.264 532.338 127.565Z" stroke="#1C1C16" stroke-width="2" stroke-miterlimit="10"/>
<path d="M467.752 161.275L412.573 279.351" stroke="#1C1C16" stroke-width="2" stroke-miterlimit="10"/>
<path d="M371.641 169.209C371.641 169.209 366.943 180.029 371.439 181.324C373.993 182.062 375.371 177.264 375.371 177.264C375.371 177.264 378.106 180.772 380.643 179.532C385.276 177.286 375.956 168.095 375.956 168.095L371.641 169.209Z" fill="white" stroke="#1C1C16" stroke-width="2" stroke-miterlimit="10"/>
<path d="M404.451 104.193C411.501 131.434 399.649 163.554 376.339 169.575C353.029 175.597 327.072 153.253 320.006 126.013C312.939 98.7725 327.488 76.9639 350.803 70.953C374.118 64.9421 397.396 76.9639 404.451 104.193Z" fill="white"/>
<path d="M379.123 72.8054C383.655 78.4899 386.907 85.0843 388.656 92.1387C395.706 119.379 383.859 151.499 360.544 157.526C352.231 159.674 343.589 158.198 335.577 154.193C346.876 166.34 362.124 173.258 376.344 169.575C399.654 163.565 411.506 131.434 404.451 104.193C400.376 88.4775 390.893 77.8546 379.123 72.8054Z" fill="#D5D5DF"/>
<path d="M404.451 104.193C411.501 131.434 399.649 163.554 376.339 169.575C353.029 175.597 327.072 153.253 320.006 126.013C312.939 98.7725 327.488 76.9639 350.803 70.953C374.118 64.9421 397.396 76.9639 404.451 104.193Z" stroke="#1C1C16" stroke-width="2" stroke-miterlimit="10"/>
<path d="M375.163 173.914L406.699 347.973" stroke="#1C1C16" stroke-width="2" stroke-miterlimit="10"/>
<path d="M316.926 494.443C377.09 494.443 425.863 476.207 425.863 453.711C425.863 431.215 377.09 412.979 316.926 412.979C256.763 412.979 207.99 431.215 207.99 453.711C207.99 476.207 256.763 494.443 316.926 494.443Z" fill="#65C483"/>
<path d="M316.926 494.443C377.09 494.443 425.863 476.207 425.863 453.711C425.863 431.215 377.09 412.979 316.926 412.979C256.763 412.979 207.99 431.215 207.99 453.711C207.99 476.207 256.763 494.443 316.926 494.443Z" fill="#167634"/>
<path d="M287.168 435.749C355.469 435.749 410.839 417.513 410.839 395.017C410.839 372.521 355.469 354.285 287.168 354.285C218.867 354.285 163.497 372.521 163.497 395.017C163.497 417.513 218.867 435.749 287.168 435.749Z" fill="#65C483"/>
<path d="M287.168 435.749C355.469 435.749 410.839 417.513 410.839 395.017C410.839 372.521 355.469 354.285 287.168 354.285C218.867 354.285 163.497 372.521 163.497 395.017C163.497 417.513 218.867 435.749 287.168 435.749Z" fill="#167634"/>
<path d="M340.936 427.312C409.238 427.312 464.607 409.076 464.607 386.58C464.607 364.084 409.238 345.848 340.936 345.848C272.635 345.848 217.266 364.084 217.266 386.58C217.266 409.076 272.635 427.312 340.936 427.312Z" fill="#65C483"/>
<path d="M443.042 383.64L379.495 409.214L315.953 383.624L311.479 264.318L379.511 287.078L447.926 262.925L443.042 383.64Z" fill="#BF5300"/>
<path d="M443.042 383.64L447.926 262.969L379.506 287.078L379.495 409.214L443.042 383.64Z" fill="#FA6D00"/>
<path d="M426.924 270.367C430.501 303.793 439.323 339.394 421.312 368.728C412.813 382.208 396.854 388.722 379.495 389.646V409.203L443.069 383.64L447.953 262.969L426.924 270.367Z" fill="#D65D00"/>
<path d="M451.683 250.63L377.745 222.652L307.339 250.613L379.5 277.761L451.683 250.63Z" fill="#1FA94A"/>
<path d="M379.506 305.673L449.857 278.449L451.683 250.63L379.511 277.023L307.339 250.613L309.16 278.433L379.506 305.673Z" fill="#167634"/>
<path d="M451.683 250.63L379.511 277.023L379.506 305.673L449.857 278.449L451.683 250.63Z" fill="#167634"/>
<path d="M372.034 247.247C378.866 224.389 410.418 214.46 427.203 241.357L415.947 237.023C415.947 237.023 398.664 225.253 382.798 249.46L372.034 247.247Z" fill="#002E0E"/>
<path d="M379.626 255.176C422.434 247.072 416.893 292.416 408.771 310.482C400.65 328.547 406.923 336.662 406.923 336.662L416.516 321.908L432.754 328.181C432.754 328.181 426.295 320.804 429.068 311.405C431.841 302.007 438.847 283.384 433.87 265.87C428.893 248.357 406.72 247.619 396.203 248.548L379.626 255.176Z" fill="#002E0E"/>
<path d="M429.041 311.389C431.808 301.985 438.82 283.367 433.843 265.854C431.245 256.723 423.998 252.16 416.144 250.007C422.188 252.739 427.345 257.51 429.44 265.482C434.422 284.395 427.46 299.788 424.692 309.941C421.925 320.094 432.727 328.165 432.727 328.165C432.727 328.165 426.268 320.81 429.041 311.389Z" fill="#002E0E"/>
<path d="M429.041 311.389C431.808 301.985 438.82 283.367 433.843 265.854C431.245 256.723 423.998 252.16 416.144 250.007C422.188 252.739 427.345 257.51 429.44 265.482C434.422 284.395 427.46 299.788 424.692 309.941C421.925 320.094 432.727 328.165 432.727 328.165C432.727 328.165 426.268 320.81 429.041 311.389Z" fill="black" fill-opacity="0.3"/>
<path d="M379.691 254.717C336.884 246.597 345.815 292.165 353.931 310.23C362.048 328.296 355.774 336.411 355.774 336.411L346.181 321.657L329.943 327.919C329.943 327.919 336.402 320.547 333.635 311.143C330.867 301.739 323.861 283.121 328.844 265.613C333.826 248.105 355.971 247.362 366.489 248.285L379.691 254.717Z" fill="#002E0E"/>
<path d="M341.587 270.695C336.752 290.089 343.189 310.662 346.11 321.689L346.181 321.662L355.774 336.416C355.774 336.416 362.047 328.301 353.931 310.236C345.815 292.17 336.883 246.602 379.691 254.723L371.351 250.662C360.182 251.05 345.525 254.887 341.587 270.695Z" fill="#002E0E"/>
<path d="M341.587 270.695C336.752 290.089 343.189 310.662 346.11 321.689L346.181 321.662L355.774 336.416C355.774 336.416 362.047 328.301 353.931 310.236C345.815 292.17 336.883 246.602 379.691 254.723L371.351 250.662C360.182 251.05 345.525 254.887 341.587 270.695Z" fill="black" fill-opacity="0.3"/>
<path d="M386.331 247.253C379.511 224.389 347.959 214.433 331.168 241.346L342.435 237.012C342.435 237.012 359.723 225.247 375.584 249.46L386.331 247.253Z" fill="#002E0E"/>
<path d="M379.227 255.788C387.125 255.788 393.529 252.363 393.529 248.138C393.529 243.913 387.125 240.488 379.227 240.488C371.328 240.488 364.925 243.913 364.925 248.138C364.925 252.363 371.328 255.788 379.227 255.788Z" fill="#1FA94A"/>
<path d="M387.069 244.209C387.069 245.482 383.728 246.515 379.598 246.509C375.469 246.504 372.127 245.477 372.127 244.209C372.127 242.941 375.475 241.903 379.598 241.903C383.722 241.903 387.069 242.936 387.069 244.209Z" fill="#002E0E"/>
<path d="M348.714 293.75L379.511 305.668L379.495 409.219L315.953 383.624L312.054 279.553L327.472 285.526" stroke="#1C1C16" stroke-width="2" stroke-miterlimit="10"/>
<path d="M435.379 284.05L447.253 279.46L443.047 383.64L379.495 409.219L379.511 305.668L413.732 292.433" stroke="#1C1C16" stroke-width="2" stroke-miterlimit="10"/>
<path d="M327.471 285.526L312.053 279.553L309.16 278.433L307.339 250.608L331.661 259.51" stroke="#1C1C16" stroke-width="2" stroke-miterlimit="10"/>
<path d="M430.102 258.515L451.683 250.624L449.856 278.449L447.253 279.46L435.379 284.05" stroke="#1C1C16" stroke-width="2" stroke-miterlimit="10"/>
<path d="M413.732 292.433H413.727L379.511 305.668L348.714 293.75" stroke="#1C1C16" stroke-width="2" stroke-miterlimit="10"/>
<path d="M349.589 266.067L379.511 277.023L410.533 265.673" stroke="#1C1C16" stroke-width="2" stroke-miterlimit="10"/>
<path d="M379.511 277.023L379.506 305.673" stroke="#1C1C16" stroke-width="2" stroke-miterlimit="10"/>
<path d="M388.464 242.307C402.52 227.892 415.947 237.023 415.947 237.023L427.208 241.356C413.924 220.045 391.396 221.854 379.188 234.859C380.898 236.678 382.381 238.696 383.608 240.87C385.281 241.143 386.912 241.626 388.464 242.307Z" stroke="#1C1C16" stroke-width="2" stroke-miterlimit="10"/>
<path d="M429.041 311.389C431.808 301.985 438.82 283.367 433.843 265.854C428.866 248.34 406.721 247.619 396.203 248.548L393.212 249.744C392.484 251.575 390.526 253.16 387.83 254.247C421.614 253.258 416.27 293.679 408.744 310.487C400.623 328.553 406.896 336.668 406.896 336.668L416.489 321.913L432.727 328.187C432.727 328.187 426.268 320.81 429.041 311.389Z" stroke="#1C1C16" stroke-width="2" stroke-miterlimit="10"/>
<path d="M364.935 248.176C353.931 247.477 333.597 248.919 328.838 265.619C323.856 283.105 330.862 301.75 333.629 311.148C336.397 320.547 329.938 327.924 329.938 327.924L346.176 321.662L355.769 336.416C355.769 336.416 362.042 328.301 353.926 310.236C346.526 293.755 338.453 254.406 369.573 253.777C366.746 252.373 364.952 250.395 364.935 248.176Z" stroke="#1C1C16" stroke-width="2" stroke-miterlimit="10"/>
<path d="M379.232 240.488C380.698 240.485 382.162 240.61 383.607 240.859C382.381 238.686 380.897 236.667 379.188 234.848C366.986 221.843 344.464 220.034 331.174 241.335L342.435 237.012C342.435 237.012 355.884 227.876 369.945 242.335C372.876 241.073 376.041 240.444 379.232 240.488Z" stroke="#1C1C16" stroke-width="2" stroke-miterlimit="10"/>
<path d="M393.211 249.739C393.419 249.232 393.526 248.691 393.529 248.143C393.529 245.805 391.56 243.712 388.464 242.307C386.911 241.622 385.277 241.135 383.602 240.859C382.157 240.61 380.693 240.485 379.227 240.488C376.032 240.442 372.863 241.072 369.929 242.335C366.872 243.739 364.93 245.815 364.93 248.138C364.93 248.138 364.93 248.165 364.93 248.176C364.93 250.395 366.74 252.384 369.573 253.772C372.598 255.156 375.895 255.845 379.221 255.788C382.163 255.824 385.085 255.299 387.83 254.242C390.526 253.154 392.484 251.57 393.211 249.739Z" stroke="#1C1C16" stroke-width="2" stroke-miterlimit="10"/>
<path d="M307.339 250.608L331.168 241.346" stroke="#1C1C16" stroke-width="2" stroke-miterlimit="10"/>
<path d="M367.091 226.887L377.745 222.652L390.116 227.335" stroke="#1C1C16" stroke-width="2" stroke-miterlimit="10"/>
<path d="M427.203 241.356L451.683 250.624" stroke="#1C1C16" stroke-width="2" stroke-miterlimit="10"/>
<path d="M346.181 321.662C343.78 312.919 340.034 301.318 339.842 292.466" stroke="#1C1C16" stroke-width="2" stroke-miterlimit="10"/>
<path d="M393.212 249.739C400.787 250.373 412.518 250.728 419.01 256.979" stroke="#1C1C16" stroke-width="2" stroke-miterlimit="10"/>
<path d="M234.817 288.018C234.648 288.022 234.48 287.992 234.323 287.929C234.167 287.867 234.024 287.772 233.905 287.653C233.787 287.533 233.693 287.39 233.632 287.233C233.57 287.076 233.542 286.908 233.548 286.739C233.592 284.16 234.904 223.28 255.425 203.379C259.746 199.193 264.652 197.073 270.011 197.073C275.371 197.073 279.933 199.193 283.602 203.379C301.066 223.291 293.278 284.029 292.938 286.602C292.88 286.989 292.686 287.343 292.392 287.602C292.098 287.861 291.722 288.008 291.331 288.018C291.149 288.021 290.969 287.984 290.803 287.91C290.638 287.836 290.49 287.727 290.371 287.59C290.252 287.453 290.165 287.291 290.115 287.117C290.066 286.943 290.055 286.759 290.084 286.58C290.166 285.963 298.052 224.455 281.333 205.384C278.15 201.761 274.223 199.92 269.672 199.92C265.122 199.92 261.069 201.674 257.345 205.286C237.765 224.258 236.452 285.821 236.436 286.444C236.419 286.837 236.262 287.212 235.991 287.499C235.721 287.786 235.357 287.966 234.964 288.007L234.817 288.018Z" fill="#F0F1F1" stroke="#1C1C16" stroke-width="2" stroke-miterlimit="10"/>
<path d="M204.156 265.548V400.137H303.434V265.548H204.156Z" fill="#1FA94A"/>
<path d="M204.156 265.548V400.137H303.434V265.548H204.156Z" fill="black" fill-opacity="0.3"/>
<path d="M204.156 400.137L222.659 409.995V275.405L204.156 265.548V400.137Z" fill="#1FA94A"/>
<path d="M204.156 400.137L222.659 409.995V275.405L204.156 265.548V400.137Z" fill="black" fill-opacity="0.3"/>
<path d="M303.439 400.137L321.936 409.995V275.405L303.439 265.548V400.137Z" fill="#1FA94A"/>
<path d="M303.439 400.137L321.936 409.995V275.405L303.439 265.548V400.137Z" fill="black" fill-opacity="0.3"/>
<path d="M222.659 409.995L215.335 393.481L204.156 400.137L222.659 409.995Z" fill="#9D2222"/>
<path d="M215.335 393.481V271.957L204.156 265.548V400.137L215.335 393.481Z" fill="#1FA94A"/>
<path d="M222.658 275.406V409.995H321.936V275.406H222.658Z" fill="#1FA94A"/>
<path d="M292.577 395.946C302.627 395.958 312.589 394.069 321.936 390.378V409.995H222.658V354.351C229.459 366.953 239.553 377.476 251.865 384.801C264.178 392.126 278.247 395.977 292.577 395.946Z" fill="#1FA94A"/>
<path d="M292.577 395.946C302.627 395.958 312.589 394.069 321.936 390.378V409.995H222.658V354.351C229.459 366.953 239.553 377.476 251.865 384.801C264.178 392.126 278.247 395.977 292.577 395.946Z" fill="black" fill-opacity="0.3"/>
<path d="M247.412 288.018C247.411 288.688 247.211 289.344 246.837 289.901C246.464 290.459 245.933 290.893 245.312 291.149C244.691 291.405 244.009 291.471 243.35 291.34C242.692 291.208 242.087 290.884 241.612 290.41C241.138 289.935 240.815 289.33 240.684 288.672C240.554 288.014 240.621 287.332 240.879 286.712C241.136 286.092 241.571 285.563 242.13 285.19C242.688 284.818 243.345 284.619 244.016 284.619C244.463 284.619 244.905 284.707 245.317 284.877C245.729 285.048 246.104 285.299 246.42 285.614C246.735 285.93 246.985 286.305 247.155 286.717C247.326 287.13 247.413 287.571 247.412 288.018Z" fill="#1C1C16"/>
<path d="M304.112 286.865C304.112 287.537 303.912 288.194 303.539 288.753C303.165 289.312 302.633 289.747 302.012 290.005C301.39 290.262 300.706 290.329 300.046 290.198C299.386 290.067 298.78 289.743 298.304 289.268C297.829 288.793 297.505 288.187 297.373 287.528C297.242 286.868 297.31 286.185 297.567 285.564C297.825 284.943 298.261 284.412 298.82 284.038C299.379 283.665 300.037 283.466 300.71 283.466C301.157 283.465 301.6 283.552 302.013 283.723C302.426 283.894 302.801 284.144 303.117 284.46C303.433 284.775 303.684 285.15 303.854 285.563C304.025 285.976 304.113 286.418 304.112 286.865Z" fill="#1C1C16"/>
<path d="M244.3 288.017C243.945 288.017 243.603 287.884 243.339 287.646C243.075 287.408 242.909 287.081 242.873 286.728C242.6 284.127 236.376 222.794 254.451 202.712C258.253 198.493 262.896 196.351 268.256 196.351C273.616 196.351 278.44 198.493 282.629 202.712C302.553 222.777 302.318 283.996 302.269 286.591C302.265 286.97 302.111 287.332 301.842 287.599C301.573 287.866 301.21 288.016 300.831 288.017C300.45 288.013 300.086 287.858 299.818 287.587C299.551 287.316 299.402 286.95 299.403 286.569C299.403 285.946 299.682 223.952 280.6 204.734C276.968 201.078 272.823 199.225 268.267 199.225C263.711 199.225 259.85 201.007 256.568 204.63C239.334 223.755 245.629 285.804 245.706 286.427C245.727 286.615 245.71 286.805 245.656 286.986C245.603 287.167 245.514 287.336 245.395 287.483C245.276 287.63 245.129 287.752 244.963 287.842C244.797 287.931 244.614 287.987 244.426 288.007L244.3 288.017Z" fill="#F0F1F1" stroke="#1C1C16" stroke-width="2" stroke-miterlimit="10"/>
<path d="M241.67 265.548H204.156L222.659 275.384H241.982" stroke="#1C1C16" stroke-width="2" stroke-linejoin="round"/>
<path d="M245.181 275.406H299.108" stroke="#1C1C16" stroke-width="2" stroke-linejoin="round"/>
<path d="M302.247 275.406H303.434V265.57H301.793" stroke="#1C1C16" stroke-width="2" stroke-linejoin="round"/>
<path d="M298.681 265.548H245.028" stroke="#1C1C16" stroke-width="2" stroke-linejoin="round"/>
<path d="M222.659 275.405L204.156 265.548L215.335 271.957V393.481L222.659 409.995V275.405Z" stroke="#1C1C16" stroke-width="2" stroke-linejoin="round"/>
<path d="M215.335 393.481L204.156 400.137L222.659 409.995L215.335 393.481Z" stroke="#1C1C16" stroke-width="2" stroke-linejoin="round"/>
<path d="M215.335 271.957L204.156 265.548V400.137L215.335 393.481V271.957Z" stroke="#1C1C16" stroke-width="2" stroke-linejoin="round"/>
<path d="M241.981 275.406H222.658V409.995H321.936V275.406H302.362" stroke="#1C1C16" stroke-width="2" stroke-linejoin="round"/>
<path d="M299.184 275.406H245.082" stroke="#1C1C16" stroke-width="2" stroke-linejoin="round"/>
<path d="M303.434 265.548L321.936 275.405" stroke="#1C1C16" stroke-width="2" stroke-linejoin="round"/>
<path d="M290.63 357.493H253.073C245.679 357.493 239.684 363.482 239.684 370.87V370.875C239.684 378.263 245.679 384.252 253.073 384.252H290.63C298.025 384.252 304.019 378.263 304.019 370.875V370.87C304.019 363.482 298.025 357.493 290.63 357.493Z" fill="white" stroke="#1C1C16" stroke-width="2" stroke-miterlimit="10"/>
<path d="M388.027 447.465L294.765 426.487L291.172 321.542L400.388 347.749L388.027 447.465Z" fill="#167634"/>
<path d="M380.354 438.006L301.121 420.186L298.069 331.023L390.855 353.29L380.354 438.006Z" fill="#1FA94A"/>
<path d="M291.172 321.542L307.853 313.487L417.069 339.695L404.708 439.405L388.027 447.465L400.388 347.75L291.172 321.542Z" fill="#002E0E"/>
<path d="M291.172 321.542L307.853 313.487L417.069 339.695L404.708 439.405L388.027 447.465L400.388 347.75L291.172 321.542Z" fill="black" fill-opacity="0.3"/>
<path d="M417.069 339.695L400.387 347.749L388.027 447.465L404.708 439.405L417.069 339.695Z" fill="#1FA94A"/>
<path d="M291.172 321.542L294.765 426.459L388.027 447.454L400.409 347.755L291.172 321.542ZM380.354 438.006L301.121 420.186L298.069 331.023L390.855 353.29L380.354 438.006Z" stroke="#1C1C16" stroke-width="2" stroke-linejoin="round"/>
<path d="M298.069 331.023L301.121 420.186L380.354 438.006L390.855 353.29L298.069 331.023Z" stroke="#1C1C16" stroke-width="2" stroke-linejoin="round"/>
<path d="M417.069 339.695L307.853 313.487L291.172 321.542L400.388 347.75L417.069 339.695Z" stroke="#1C1C16" stroke-width="2" stroke-linejoin="round"/>
<path d="M400.387 347.749L388.027 447.465L404.708 439.405L417.069 339.695L400.387 347.749Z" stroke="#1C1C16" stroke-width="2" stroke-linejoin="round"/>
<path d="M212.3 361.935L295.957 328.7L383.815 361.935L298.057 393.514L212.3 361.935Z" fill="#FA6D00"/>
<path d="M298.058 393.514L383.816 361.935L295.958 328.7V392.919L298.058 393.514Z" fill="#AB4A00"/>
<path d="M369.617 453.711L298.057 484.109L226.498 453.711L217.216 366.389L298.057 393.427L379.347 364.717L369.617 453.711Z" fill="#FA6D00"/>
<path d="M243.497 375.176L230.092 370.695L330.02 470.536L336.277 467.875L243.497 375.176Z" fill="white" stroke="#1C1C16" stroke-width="2" stroke-miterlimit="10"/>
<path d="M314.898 476.956L321.16 474.295L217.704 370.93L218.759 380.902L314.898 476.956Z" fill="white" stroke="#1C1C16" stroke-width="2" stroke-miterlimit="10"/>
<path d="M262.475 381.525L345.137 464.109L351.394 461.454L275.88 386.006L262.475 381.525Z" fill="white" stroke="#1C1C16" stroke-width="2" stroke-miterlimit="10"/>
<path d="M299.781 483.377L306.043 480.722L220.263 395.017L221.319 404.984L299.781 483.377Z" fill="white" stroke="#1C1C16" stroke-width="2" stroke-miterlimit="10"/>
<path d="M227.367 454.082L242.884 460.672L225.382 443.181L226.438 453.153L227.367 454.082Z" fill="white" stroke="#1C1C16" stroke-width="2" stroke-miterlimit="10"/>
<path d="M264.854 470.006L280.364 476.596L222.823 419.099L223.878 429.066L264.854 470.006Z" fill="white" stroke="#1C1C16" stroke-width="2" stroke-miterlimit="10"/>
<path d="M246.734 462.306L269.108 471.814V386.58H240.986L246.734 462.306Z" fill="#002E0E" stroke="#1C1C16" stroke-width="2" stroke-miterlimit="10"/>
<path d="M369.617 453.711L379.347 364.766L298.058 393.427V484.11L369.617 453.711Z" fill="#FA6D00"/>
<mask id="mask0_221_808" style="mask-type:luminance" maskUnits="userSpaceOnUse" x="298" y="364" width="82" height="121">
<path d="M369.617 453.711L379.347 364.766L298.058 393.427V484.11L369.617 453.711Z" fill="white"/>
</mask>
<g mask="url(#mask0_221_808)">
<path d="M353.336 374.154L366.741 369.667L266.817 469.509L260.555 466.853L353.336 374.154Z" fill="white" stroke="#1C1C16" stroke-width="2" stroke-miterlimit="10"/>
<path d="M281.934 475.929L275.677 473.273L379.134 369.908L378.073 379.875L281.934 475.929Z" fill="white" stroke="#1C1C16" stroke-width="2" stroke-miterlimit="10"/>
<path d="M334.357 380.498L251.695 463.088L245.438 460.427L320.952 384.984L334.357 380.498Z" fill="white" stroke="#1C1C16" stroke-width="2" stroke-miterlimit="10"/>
<path d="M297.051 482.355L290.794 479.694L376.574 393.99L375.513 403.957L297.051 482.355Z" fill="white" stroke="#1C1C16" stroke-width="2" stroke-miterlimit="10"/>
<path d="M369.797 453.328L354.287 459.918L371.788 442.432L370.727 452.399L369.797 453.328Z" fill="white" stroke="#1C1C16" stroke-width="2" stroke-miterlimit="10"/>
<path d="M332.317 469.252L316.806 475.842L374.348 418.35L373.287 428.317L332.317 469.252Z" fill="white" stroke="#1C1C16" stroke-width="2" stroke-miterlimit="10"/>
</g>
<path d="M326.875 471.869L349.31 462.339L355.003 387.367H326.875V471.869Z" fill="#002E0E" stroke="#1C1C16" stroke-width="2" stroke-miterlimit="10"/>
<path d="M298.057 415.52L381.649 383.164L383.815 361.935L298.057 393.514L212.3 361.935L214.471 383.164L298.057 415.52Z" fill="#D65D00"/>
<path d="M298.058 415.52L381.65 383.164L383.815 361.935L298.058 393.514V415.52Z" fill="#D15B00"/>
<path d="M298.058 484.109L369.617 453.711L298.058 484.109Z" stroke="#1C1C16" stroke-width="2" stroke-linejoin="round"/>
<path d="M298.058 393.427L295.482 392.564L298.058 393.514V393.427Z" stroke="#1C1C16" stroke-width="2" stroke-linejoin="round"/>
<path d="M219.196 384.995L226.497 453.711L298.057 484.11V415.52L219.196 384.995Z" stroke="#1C1C16" stroke-width="2" stroke-linejoin="round"/>
<path d="M303.828 391.389L298.194 393.378L303.609 391.465L303.828 391.389Z" stroke="#1C1C16" stroke-width="2" stroke-linejoin="round"/>
<path d="M298.058 415.52V484.109L369.617 453.711L377.143 384.908L298.058 415.52Z" stroke="#1C1C16" stroke-width="2" stroke-linejoin="round"/>
<path d="M298.058 393.514L303.609 391.465L298.194 393.378L298.058 393.427V393.514Z" stroke="#1C1C16" stroke-width="2" stroke-linejoin="round"/>
<path d="M298.057 415.52V393.514L383.815 361.935L303.827 391.388L303.609 391.465L298.057 393.514L295.481 392.563L212.3 361.935L214.471 383.164L219.196 384.995L298.057 415.52Z" stroke="#1C1C16" stroke-width="2" stroke-linejoin="round"/>
<path d="M383.815 361.935L298.058 393.514V415.52L377.143 384.908L381.65 383.164L383.815 361.935Z" stroke="#1C1C16" stroke-width="2" stroke-linejoin="round"/>
<path d="M212.3 361.935L295.957 392.738V328.7L212.3 361.935Z" stroke="#1C1C16" stroke-width="2" stroke-linejoin="round"/>
<path d="M298.058 393.514V393.509V393.514Z" stroke="#1C1C16" stroke-width="2" stroke-linejoin="round"/>
<path d="M383.816 361.935L295.958 328.7V392.738V392.919L298.058 393.509V393.514L383.816 361.935Z" stroke="#1C1C16" stroke-width="2" stroke-linejoin="round"/>
<path d="M256.94 352.504L262.272 341.137L256.256 329.176L218.781 311.629L206.426 338.001L243.901 355.547L256.94 352.504ZM252.362 343.427C252.576 342.971 252.921 342.589 253.352 342.329C253.784 342.069 254.283 341.942 254.787 341.966C255.29 341.989 255.775 342.161 256.181 342.46C256.587 342.758 256.895 343.171 257.066 343.644C257.237 344.118 257.264 344.631 257.143 345.12C257.022 345.609 256.759 346.051 256.387 346.391C256.014 346.73 255.55 346.951 255.051 347.027C254.553 347.103 254.043 347.029 253.587 346.815C253.284 346.673 253.012 346.473 252.786 346.226C252.56 345.978 252.386 345.689 252.272 345.375C252.158 345.06 252.108 344.726 252.123 344.392C252.138 344.058 252.22 343.73 252.362 343.427Z" fill="white" stroke="#1C1C16" stroke-width="2" stroke-miterlimit="10"/>
<path d="M238.65 335.274C241.21 336.471 243.502 335.586 244.53 333.395C245.558 331.203 244.759 328.892 242.205 327.701C239.651 326.509 237.36 327.384 236.337 329.558C235.314 331.733 236.074 334.067 238.65 335.274ZM241.018 330.231C242.517 330.93 242.84 331.777 242.528 332.455C242.216 333.132 241.352 333.422 239.848 332.722C238.344 332.023 238.005 331.214 238.344 330.493C238.683 329.772 239.52 329.526 241.018 330.231ZM240.242 342.039L230.195 325.05L228.767 328.089L238.82 345.094L240.242 342.039ZM232.672 340.553C233.701 338.367 232.902 336.056 230.348 334.859C227.794 333.662 225.508 334.52 224.479 336.717C223.451 338.914 224.217 341.225 226.793 342.433C229.369 343.64 231.644 342.75 232.672 340.553ZM226.487 337.657C226.815 336.957 227.663 336.69 229.161 337.389C230.66 338.088 230.993 338.919 230.665 339.613C230.337 340.307 229.489 340.58 227.991 339.881C226.492 339.181 226.159 338.351 226.487 337.657Z" fill="#1C1C16"/>
<path d="M304.495 391.17L307.093 390.252C307.041 390.139 306.973 390.034 306.89 389.94C301.627 384.59 297.313 378.385 294.131 371.591C293.094 369.479 292.304 367.255 291.779 364.962C294.831 364.286 297.721 363.022 300.289 361.241C301.126 360.639 301.916 359.974 302.652 359.252C303.864 358.119 304.835 356.753 305.507 355.236C305.836 354.444 306.01 353.596 306.021 352.738C306.007 351.239 305.42 349.802 304.38 348.722C303.663 348.002 302.75 347.508 301.755 347.301C300.341 347.038 298.883 347.159 297.532 347.651C296.243 348.08 295.045 348.745 293.999 349.613C293.77 349.81 293.545 350.017 293.327 350.23C290.373 353.154 288.907 357.334 288.815 361.318C288.815 361.864 288.814 362.383 288.858 362.908C288.634 362.941 288.41 362.984 288.186 363.012C282.893 363.782 277.491 362.958 272.669 360.646C269.262 358.902 266.173 356.598 263.53 353.831C262.983 353.285 262.491 352.738 261.988 352.192C259.729 349.703 257.74 346.983 256.054 344.077C255.875 343.797 255.594 343.596 255.271 343.517C254.948 343.437 254.607 343.485 254.318 343.65C254.029 343.815 253.814 344.085 253.719 344.403C253.624 344.722 253.655 345.065 253.806 345.361C255.587 348.427 257.686 351.297 260.068 353.924C260.593 354.511 261.14 355.085 261.709 355.646C264.556 358.619 267.884 361.093 271.554 362.962C276.838 365.506 282.763 366.416 288.568 365.574L289.247 365.465C289.812 367.962 290.667 370.385 291.795 372.684C294.985 379.5 299.276 385.745 304.495 391.17ZM291.418 361.378C291.483 358.006 292.796 354.378 295.159 352.088C295.328 351.919 295.509 351.755 295.706 351.602C296.772 350.721 298.04 350.12 299.397 349.853C300.003 349.736 300.625 349.736 301.23 349.853C301.734 349.952 302.197 350.199 302.559 350.564C302.779 350.777 302.963 351.024 303.106 351.296C303.341 351.748 303.464 352.25 303.467 352.76C303.431 353.59 303.181 354.396 302.739 355.099C302.222 355.958 301.593 356.744 300.869 357.438C300.226 358.067 299.537 358.646 298.807 359.17C296.589 360.704 294.1 361.803 291.473 362.411C291.423 362.028 291.412 361.695 291.418 361.361V361.378Z" fill="#002E0E"/>
<path d="M288.875 362.886C288.661 362.924 288.437 362.979 288.208 363.006C287.568 363.099 286.928 363.154 286.288 363.203C281.609 363.551 276.92 362.665 272.691 360.635C269.281 358.889 266.188 356.584 263.541 353.815C263.197 353.454 262.852 353.094 262.529 352.722C262.343 352.536 262.168 352.351 261.982 352.176C261.698 351.853 261.436 351.547 261.157 351.23C260.325 350.269 259.541 349.283 258.805 348.274C258.302 347.593 257.822 346.904 257.366 346.209C256.912 345.504 256.475 344.793 256.059 344.061C256.003 343.955 255.927 343.86 255.835 343.782C255.635 343.584 255.375 343.458 255.095 343.421C254.816 343.385 254.532 343.44 254.287 343.58C254.188 343.643 254.095 343.714 254.008 343.793C253.854 343.956 253.744 344.155 253.687 344.372C253.631 344.589 253.63 344.817 253.686 345.034C253.716 345.145 253.756 345.252 253.806 345.356C255.595 348.412 257.692 351.277 260.063 353.908C260.61 354.482 261.129 355.067 261.704 355.624C262.425 356.356 263.158 357.066 263.93 357.744C265.305 358.983 266.777 360.11 268.332 361.116C269.369 361.794 270.446 362.407 271.559 362.952C272.051 363.192 272.555 363.416 273.063 363.629C274.081 364.056 275.124 364.421 276.186 364.722C277.647 365.14 279.14 365.439 280.649 365.618C280.879 365.657 281.111 365.683 281.344 365.695C283.746 365.933 286.167 365.883 288.558 365.547C288.673 365.538 288.788 365.521 288.902 365.498C289.014 365.486 289.126 365.467 289.236 365.443M289.236 365.443C290.089 365.312 290.931 365.137 291.784 364.924C292.316 367.211 293.103 369.431 294.131 371.542C296.509 376.643 299.533 381.417 303.128 385.749C304.314 387.198 305.583 388.585 306.901 389.919C306.945 389.96 306.982 390.008 307.011 390.061L304.5 391.154C303.839 390.476 303.199 389.793 302.597 389.088C301.995 388.383 301.345 387.678 300.77 386.946C300.196 386.214 299.584 385.476 299.026 384.717C298.468 383.957 297.932 383.203 297.385 382.427C296.904 381.749 296.439 381.045 295.996 380.334C295.915 380.229 295.844 380.118 295.782 380.001C295.301 379.23 294.825 378.46 294.382 377.657C293.939 376.853 293.463 376.017 293.037 375.192C292.61 374.367 292.184 373.515 291.784 372.662C291.516 372.116 291.237 371.52 291.008 370.93C290.365 369.461 289.843 367.943 289.449 366.389C289.372 366.083 289.301 365.76 289.236 365.443Z" stroke="#1C1C16" stroke-width="2" stroke-miterlimit="10"/>
<path d="M291.779 364.94C294.834 364.281 297.727 363.02 300.289 361.23C301.126 360.63 301.916 359.967 302.651 359.246C303.86 358.111 304.829 356.746 305.501 355.23C305.836 354.438 306.011 353.587 306.015 352.727C306.019 351.806 305.797 350.898 305.37 350.083C305.117 349.58 304.787 349.121 304.391 348.722C303.677 347.996 302.763 347.499 301.765 347.296C300.354 347.033 298.898 347.152 297.549 347.64C296.265 348.078 295.07 348.743 294.021 349.602C293.78 349.804 293.562 350.017 293.348 350.23C290.4 353.148 288.929 357.334 288.825 361.317C288.814 361.844 288.83 362.372 288.874 362.897C289.739 362.763 290.595 362.581 291.439 362.35C294.069 361.757 296.559 360.662 298.774 359.126C299.504 358.6 300.193 358.019 300.836 357.389C301.564 356.696 302.193 355.908 302.706 355.044C303.146 354.342 303.397 353.538 303.434 352.711C303.423 352.211 303.294 351.72 303.056 351.279C302.923 351.012 302.75 350.767 302.542 350.553C302.185 350.186 301.726 349.936 301.224 349.837C300.616 349.711 299.989 349.711 299.381 349.837C298.023 350.099 296.754 350.699 295.689 351.58C295.498 351.733 295.315 351.897 295.142 352.072C292.779 354.372 291.461 358.012 291.401 361.361C291.401 361.689 291.401 362.017 291.401 362.356" stroke="#1C1C16" stroke-width="2" stroke-miterlimit="10"/>
<path d="M137.814 514C213.592 514 275.021 504.938 275.021 493.76C275.021 482.581 213.592 473.519 137.814 473.519C62.0369 473.519 0.607178 482.581 0.607178 493.76C0.607178 504.938 62.0369 514 137.814 514Z" fill="#65C483"/>
<path d="M137.814 514C213.592 514 275.021 504.938 275.021 493.76C275.021 482.581 213.592 473.519 137.814 473.519C62.0369 473.519 0.607178 482.581 0.607178 493.76C0.607178 504.938 62.0369 514 137.814 514Z" fill="#167634"/>
<path d="M152.817 185.242L220.214 155.548L237.481 84.9746L251.154 88.0839C251.154 88.0839 244.755 159.351 240.45 168.045C233.855 179.963 180.048 215.553 180.048 215.553L152.817 185.242Z" fill="#E5927F"/>
<path d="M203.872 162.16L220.214 155.548L235.714 92.1989L250.617 93.6469C250.617 93.6469 247.27 155.33 240.428 168.045C233.586 180.761 213.404 191.412 213.404 191.412L203.872 162.16Z" fill="white"/>
<path d="M251.099 89.7944C251.099 89.7944 256.808 84.8382 257.755 81.1497C258.411 77.6524 257.952 73.1934 257.952 73.1934L237.863 70.8328C237.863 70.8328 234.1 74.2426 234.297 74.6142C234.494 74.9857 238.339 85.3737 241.276 87.6032C245.082 90.8928 251.099 89.7944 251.099 89.7944Z" fill="#E5927F"/>
<path d="M184.056 71.5376L160.019 43.7563C158.307 41.7907 157.41 39.2463 157.512 36.6426C157.614 34.0388 158.706 31.572 160.566 29.7455L186.747 3.96418C187.748 2.97603 188.941 2.20374 190.252 1.69521C191.564 1.18668 192.966 0.952744 194.371 1.00791L301.213 5.27018C303.933 5.37959 306.497 6.56352 308.343 8.56169C310.189 10.5599 311.166 13.2087 311.058 15.9259L308.919 69.4775C308.81 72.1947 307.625 74.7571 305.625 76.6016C303.625 78.446 300.974 79.4215 298.254 79.3136L191.412 75.0622C190.01 75.0085 188.634 74.668 187.369 74.0618C186.103 73.4556 184.976 72.5965 184.056 71.5376ZM183.509 37.658C183.566 36.3041 183.219 34.9638 182.512 33.807C181.806 32.6503 180.772 31.7289 179.541 31.1597C178.31 30.5905 176.938 30.3991 175.598 30.6096C174.258 30.8201 173.011 31.4231 172.014 32.3423C171.018 33.2614 170.316 34.4554 169.999 35.773C169.682 37.0906 169.764 38.4725 170.233 39.7439C170.703 41.0152 171.539 42.1187 172.637 42.9147C173.735 43.7107 175.044 44.1634 176.399 44.2154C178.212 44.2865 179.979 43.6388 181.315 42.4134C182.651 41.1881 183.448 39.4845 183.531 37.6744L183.509 37.658Z" fill="#002E0E"/>
<path d="M258.427 23.6963L251.705 23.4122L250.551 52.4503L271.843 53.2973L272.062 47.8328L257.497 47.2536L258.427 23.6963ZM298.511 30.6908L298.725 25.2974L276.771 24.4231L275.612 53.4667L298.134 54.3465L298.353 48.9585L282.536 48.3246L282.804 41.6088L296.296 42.1553L296.504 36.9312L283.011 36.3848L283.263 30.0788L298.511 30.6908ZM198.09 29.516C198.167 27.6908 199.759 26.2373 203.746 26.4176C206.584 26.5812 209.332 27.4774 211.72 29.0187L214 24.0023C211.37 22.1936 207.673 21.1772 204.019 21.0297C195.76 20.7018 191.609 24.6471 191.412 29.5816C190.986 40.3629 208.028 37.3028 207.82 42.7345C207.749 44.5214 206.075 45.7782 202.094 45.6252C198.651 45.47 195.334 44.2818 192.577 42.2154L190.116 47.1826C192.61 49.2754 197.199 50.8274 201.809 51.0077C210.112 51.341 214.301 47.3574 214.493 42.505C214.919 31.8493 197.883 34.8875 198.09 29.516ZM229.046 22.5269L214.941 51.035L221.832 51.3082L224.655 45.1935L238.142 45.7399L240.466 52.0623L247.521 52.341L235.686 22.7892L229.046 22.5269ZM227.034 40.1771L232.087 29.2482L236.249 40.5432L227.034 40.1771Z" fill="white"/>
<path d="M190.712 186.706L182.093 210.843L172.128 238.783C170.148 249.438 168.917 263.854 168.185 274.936C167.55 284.586 167.293 291.728 167.293 291.728C157.027 301.662 136.244 301.094 136.244 301.094C136.244 301.094 115.461 301.64 105.206 291.706C105.206 291.706 104.063 258.673 100.349 238.761L81.5298 188.87C81.5298 188.87 110.32 171.87 136.244 168.767C162.163 171.87 190.712 186.706 190.712 186.706Z" fill="#E5927F"/>
<path d="M155.693 176.504C155.693 176.504 150.53 188.87 135.933 188.87C121.335 188.87 116.172 176.504 116.172 176.504L118.005 168.991L121.166 156.013L135.933 158.351L150.7 156.013L151.635 159.887L155.693 176.504Z" fill="#E5927F"/>
<path d="M151.641 159.887C150.547 162.756 142.944 178.963 118.005 168.991L121.166 156.013L135.933 158.351L150.7 156.013L151.641 159.887Z" fill="#D9765F"/>
<path d="M108.614 126.548C108.614 126.548 100.519 108.346 110.047 106.292C110.047 106.292 109.702 88.4502 122.724 84.1715C135.747 79.8928 157.432 90.0786 157.432 90.0786C157.432 90.0786 168.228 95.7452 173.293 103.232L167.917 102.543C167.917 102.543 181.71 112.089 168.239 132.051L162.644 131.155L108.614 126.548Z" fill="#1C1C16"/>
<path d="M159.516 139.805C159.516 139.805 165.286 129.33 172.144 132.701C179.003 136.073 169.213 153.434 158.657 148.412L159.516 139.805Z" fill="#E5927F"/>
<path d="M165.357 144.991C165.872 145.379 170.083 142.739 170.914 139.745C171.549 137.472 170.493 134.974 168.59 134.892C168.323 134.881 168.056 134.925 167.807 135.022C167.558 135.119 167.331 135.267 167.142 135.456C166.954 135.645 166.806 135.871 166.71 136.121C166.614 136.37 166.57 136.636 166.583 136.903C166.451 139.116 169.317 138.608 169.279 139.351C169.219 142.537 165.357 144.991 165.357 144.991Z" fill="#D9765F"/>
<path d="M115.062 135.368L114.203 143.964C106.661 145.854 101.411 138.089 100.908 132.117C100.656 129.106 101.613 126.559 104.085 125.898C109.308 124.527 112.612 129.8 114.11 133.002C114.477 133.77 114.795 134.56 115.062 135.368Z" fill="#E5927F"/>
<path d="M109.445 138.915C108.931 139.308 104.72 136.669 103.883 133.669C103.248 131.395 104.304 128.898 106.213 128.822C107.093 128.783 108.127 129.341 108.22 130.833C108.351 133.018 105.485 132.537 105.524 133.281C105.617 136.45 109.445 138.915 109.445 138.915Z" fill="#D9765F"/>
<path d="M162.267 134.883C164.265 114.882 154.937 97.5774 141.433 96.2307C127.929 94.884 115.361 110.005 113.363 130.006C111.365 150.006 120.693 167.311 134.197 168.657C147.702 170.004 160.269 154.883 162.267 134.883Z" fill="#E5927F"/>
<path d="M149.759 153.39C152.683 153.39 155.053 150.946 155.053 147.931C155.053 144.916 152.683 142.472 149.759 142.472C146.835 142.472 144.464 144.916 144.464 147.931C144.464 150.946 146.835 153.39 149.759 153.39Z" fill="#D9765F"/>
<path d="M127.822 146.909C127.268 147.799 126.465 148.506 125.512 148.943C124.559 149.38 123.499 149.526 122.463 149.365C121.427 149.203 120.461 148.74 119.687 148.034C118.913 147.327 118.364 146.409 118.109 145.392C117.854 144.376 117.904 143.308 118.253 142.32C118.602 141.332 119.235 140.469 120.072 139.838C120.909 139.207 121.913 138.836 122.96 138.772C124.006 138.708 125.049 138.953 125.957 139.477C127.19 140.216 128.079 141.414 128.428 142.807C128.778 144.201 128.56 145.676 127.822 146.909Z" fill="#D9765F"/>
<path d="M137.507 158.717C136.226 158.925 134.913 158.822 133.679 158.417C132.41 158.077 131.284 157.339 130.466 156.312C129.648 155.285 129.181 154.024 129.134 152.712C129.099 152.279 129.099 151.844 129.134 151.411C133.2 153.205 137.616 154.065 142.058 153.931C142.058 153.931 141.292 157.991 137.507 158.717Z" fill="white"/>
<path d="M137.508 158.718C136.226 158.925 134.913 158.822 133.679 158.417C132.411 158.077 131.285 157.339 130.467 156.312C129.649 155.285 129.182 154.024 129.135 152.712C130.537 152.873 131.894 153.304 133.133 153.98C135.348 155.182 136.934 156.974 137.508 158.718Z" fill="#1FA94A"/>
<path d="M137.507 158.717C136.226 158.925 134.913 158.822 133.679 158.417C132.41 158.077 131.284 157.339 130.466 156.312C129.648 155.285 129.181 154.024 129.134 152.712C129.099 152.279 129.099 151.844 129.134 151.411C133.2 153.205 137.616 154.065 142.058 153.931C142.058 153.931 141.292 157.991 137.507 158.717Z" stroke="#1C1C16" stroke-miterlimit="10"/>
<path d="M152.45 135.352C152.122 137.253 150.656 138.592 149.168 138.335C147.681 138.078 146.74 136.335 147.063 134.434C147.385 132.532 148.862 131.193 150.344 131.45C151.826 131.707 152.778 133.45 152.45 135.352Z" fill="#1C1C16"/>
<path d="M129.195 132.401C129.195 134.587 127.816 136.297 126.132 136.291C124.447 136.286 123.091 134.532 123.102 132.379C123.113 130.226 124.48 128.483 126.165 128.488C127.849 128.494 129.206 130.248 129.195 132.401Z" fill="#1C1C16"/>
<path d="M119.552 124.291C121.295 122.669 123.523 121.662 125.893 121.424C128.264 121.186 130.647 121.731 132.678 122.975C132.841 123.074 132.982 123.205 133.092 123.36C133.202 123.515 133.279 123.691 133.319 123.877C133.358 124.063 133.36 124.256 133.322 124.442C133.285 124.629 133.21 124.806 133.102 124.962C132.994 125.119 132.855 125.252 132.694 125.353C132.533 125.454 132.353 125.522 132.165 125.551C131.977 125.58 131.784 125.571 131.6 125.523C131.416 125.476 131.243 125.392 131.092 125.275C128.112 122.707 123.342 122.619 120.154 124.936C120.068 125.015 119.955 125.057 119.838 125.052C119.722 125.048 119.612 124.997 119.533 124.912C119.454 124.826 119.412 124.713 119.417 124.597C119.421 124.48 119.472 124.37 119.558 124.291H119.552Z" fill="#1C1C16"/>
<path d="M156.831 128.018C155.401 126.326 153.455 125.149 151.292 124.668C149.128 124.186 146.867 124.426 144.853 125.352C144.686 125.421 144.536 125.524 144.411 125.655C144.286 125.785 144.19 125.94 144.128 126.11C144.067 126.28 144.042 126.46 144.054 126.64C144.066 126.82 144.116 126.996 144.199 127.156C144.283 127.316 144.399 127.457 144.541 127.569C144.682 127.682 144.845 127.764 145.02 127.81C145.194 127.856 145.377 127.865 145.555 127.837C145.734 127.809 145.904 127.744 146.056 127.647C147.616 126.675 149.45 126.236 151.282 126.398C153.113 126.56 154.842 127.312 156.207 128.543C156.28 128.625 156.382 128.676 156.492 128.683C156.602 128.69 156.71 128.653 156.792 128.581C156.875 128.509 156.925 128.406 156.933 128.297C156.94 128.187 156.903 128.079 156.831 127.996V128.018Z" fill="#1C1C16"/>
<path d="M139.963 136.242C139.963 136.242 140.63 147.062 139.542 147.822C138.612 148.466 133.931 146.024 133.931 146.024" stroke="#1C1C16" stroke-miterlimit="10"/>
<path d="M151.399 134.013C151.375 134.155 151.308 134.287 151.209 134.392C151.109 134.497 150.98 134.57 150.839 134.602C150.698 134.634 150.551 134.624 150.415 134.572C150.28 134.52 150.163 134.43 150.08 134.312C149.996 134.194 149.949 134.054 149.945 133.909C149.94 133.765 149.979 133.622 150.056 133.5C150.133 133.377 150.244 133.28 150.376 133.22C150.508 133.161 150.655 133.142 150.798 133.166C150.893 133.182 150.984 133.216 151.066 133.268C151.148 133.319 151.219 133.386 151.275 133.464C151.331 133.543 151.371 133.632 151.392 133.726C151.413 133.82 151.416 133.918 151.399 134.013Z" fill="white"/>
<path d="M128.002 130.8C128.001 130.982 127.946 131.161 127.843 131.312C127.741 131.463 127.596 131.581 127.427 131.649C127.257 131.718 127.071 131.736 126.892 131.699C126.713 131.662 126.549 131.573 126.42 131.443C126.292 131.313 126.205 131.148 126.17 130.969C126.136 130.79 126.155 130.604 126.226 130.436C126.297 130.267 126.416 130.124 126.569 130.023C126.721 129.923 126.901 129.87 127.083 129.871C127.205 129.871 127.325 129.896 127.437 129.943C127.548 129.99 127.65 130.059 127.735 130.145C127.821 130.231 127.888 130.334 127.934 130.446C127.98 130.558 128.003 130.678 128.002 130.8Z" fill="white"/>
<path d="M114.056 145.362C114.056 145.362 116.178 134.084 115.21 127.658C114.686 123.636 115.416 119.551 117.299 115.958L108.548 126.341C108.548 126.341 112.163 128.647 113.334 131.74C112.879 136.291 113.122 140.885 114.056 145.362Z" fill="#1C1C16"/>
<path d="M158.422 149.783C158.422 149.783 158.575 138.308 160.796 132.204C162.104 128.366 162.198 124.218 161.064 120.324L168.228 132.068C168.228 132.068 163.47 133.707 161.807 136.598C161.358 141.14 160.217 145.586 158.422 149.783Z" fill="#1C1C16"/>
<path d="M114.553 121.423C114.553 121.423 121.291 117.488 122.555 110.226C122.555 110.226 139.083 120.608 148.298 120.324C146.559 115.953 145.411 112.778 145.411 112.778C145.411 112.778 157.7 122.614 162.683 122.067C167.665 121.521 157.552 99.1167 157.552 99.1167L140.849 92.1932L120.252 97.4337L113.957 110.843L114.553 121.423Z" fill="#1C1C16"/>
<path d="M232.842 488.814C234.625 494.191 225.732 492.514 225.732 492.514C225.732 492.514 193.42 492.787 188.476 489.235C183.553 488.787 184.882 480.623 187.601 474.481L194.098 380.585C194.098 380.585 192.43 378.82 189.657 375.87C186.468 372.46 181.809 367.476 176.531 361.831L176.482 361.777C160.309 344.438 138.432 320.864 136.14 317.613C120.225 292.067 145.591 281.804 163.848 285.657C163.848 285.657 178.833 304.083 193.764 323.274C206.956 340.214 220.137 357.76 222.921 363.777C227.909 374.514 202.477 473.443 202.575 473.891C203.204 476.743 231.054 483.421 232.842 488.814Z" fill="#E5927F"/>
<path d="M40.1877 488.814C38.3993 494.191 47.2977 492.514 47.2977 492.514C47.2977 492.514 79.6046 492.787 84.5543 489.235C89.4766 488.787 88.1421 480.623 85.4239 474.481L78.9373 380.607L83.3838 375.891C86.5669 372.482 91.2267 367.498 96.51 361.853L96.5593 361.799C112.748 344.438 134.598 320.864 136.911 317.613C152.832 292.067 127.461 281.804 109.204 285.657C109.204 285.657 94.2184 304.083 79.2874 323.274C66.0955 340.214 52.9201 357.76 50.1308 363.777C45.1483 374.514 70.5803 473.443 70.4764 473.891C69.8201 476.743 41.9762 483.421 40.1877 488.814Z" fill="#E5927F"/>
<path d="M69.279 468.793L68.5023 473.164C68.5023 473.164 31.7818 481.153 35.4079 493.514H90.9317L86.4087 468.793H69.279Z" fill="#1C1C16"/>
<path d="M90.9262 492.76H35.2383V498.005H90.9262V492.76Z" fill="#F0F1F1"/>
<path d="M204.686 468.793L205.463 473.164C205.463 473.164 242.162 481.142 238.558 493.503H183.034L187.557 468.782L204.686 468.793Z" fill="#1C1C16"/>
<path d="M183.039 498.006H238.727V492.76H183.039V498.006Z" fill="#F0F1F1"/>
<path d="M237.146 85.9202C237.146 85.9202 229.325 80.494 229.998 73.1224C230.594 70.27 238.054 66.8219 240.975 67.1552C243.895 67.4886 242.38 72.5705 237.945 74.1334C237.945 74.1334 246.909 77.2699 243.753 87.0349C241.117 94.5759 237.146 85.9202 237.146 85.9202Z" fill="#E5927F"/>
<path d="M211.37 469.11H183.165L190.708 381.738L136.113 322.247L81.514 381.738L87.0707 446.044L89.0725 469.11H60.8676C60.8676 469.11 44.3614 372.045 47.1945 363.52C50.0275 354.995 102.746 291.717 102.746 291.717H168.836C168.836 291.717 222.199 354.974 225.043 363.52C227.887 372.066 211.37 469.11 211.37 469.11Z" fill="#002E0E"/>
<path d="M81.5138 381.738L87.0706 446.044L72.4458 376.962L126.892 324.454L117.671 315.7L136.113 322.247L81.5138 381.738Z" fill="#002E0E"/>
<path d="M81.5138 381.738L87.0706 446.044L72.4458 376.962L126.892 324.454L117.671 315.7L136.113 322.247L81.5138 381.738Z" fill="black" fill-opacity="0.3"/>
<path d="M79.4898 312.908L72.4454 266.641L84.9317 241.531L84.3355 241.313L66.998 234.925L59.0184 236.761C59.0184 236.761 48.8401 254.247 48.8401 262.848C48.8401 271.449 65.1822 317.733 65.1822 317.733L66.6753 317.231L79.4898 312.908Z" fill="white"/>
<path d="M218.737 190.925L181.256 214.767C181.256 214.767 181.256 215.04 181.191 215.553C181.081 216.848 180.852 219.679 180.551 223.624C180.414 225.532 180.266 227.695 180.13 230.072C179.949 232.564 179.785 235.275 179.61 238.16C178.713 254.335 178.21 278.843 179.298 296.028C179.435 298.313 179.61 300.477 179.812 302.477C179.812 302.477 164.427 311.16 134.56 311.16C104.692 311.16 88.569 306.242 88.569 306.242C90.259 289.613 91.4294 256.887 91.2106 238.182L84.9319 252.646L52.6633 234.919L78.0789 188.87L116.911 172.302C118.776 188.739 134.533 196.155 134.533 196.155C134.533 196.155 153.325 188.86 155.217 172.45L169.765 175.663L204.506 159.592L218.737 190.925Z" fill="#1FA94A"/>
<path d="M179.812 302.476C179.812 302.476 164.427 311.159 134.56 311.159C104.692 311.159 88.5688 306.241 88.5688 306.241C90.2588 289.613 91.4293 256.886 91.2105 238.182L89.0228 215.575L95.039 239.619C95.039 239.619 101.394 299.181 179.326 296.072C179.451 298.312 179.61 300.46 179.812 302.476Z" fill="#1FA94A"/>
<path d="M179.812 302.476C179.812 302.476 164.427 311.159 134.56 311.159C104.692 311.159 88.5688 306.241 88.5688 306.241C90.2588 289.613 91.4293 256.886 91.2105 238.182L89.0228 215.575L95.039 239.619C95.039 239.619 101.394 299.181 179.326 296.072C179.451 298.312 179.61 300.46 179.812 302.476Z" fill="black" fill-opacity="0.3"/>
<path d="M68.5023 473.175C68.5023 473.175 33.3241 480.825 35.2602 492.76H90.7949L86.4742 469.11H69.2242L68.5023 473.175Z" stroke="#1C1C16" stroke-width="2" stroke-linejoin="round"/>
<path d="M35.2437 492.76V498.005H90.9315V492.76H90.7948H35.2601H35.2437Z" stroke="#1C1C16" stroke-width="2" stroke-linejoin="round"/>
<path d="M205.463 473.175L204.741 469.11H187.497L183.17 492.76H238.705C240.641 480.831 205.463 473.175 205.463 473.175Z" stroke="#1C1C16" stroke-width="2" stroke-linejoin="round"/>
<path d="M183.17 492.76H183.034V498.005H238.727V492.76H238.705H183.17Z" stroke="#1C1C16" stroke-width="2" stroke-linejoin="round"/>
<path d="M178.429 303.192C193.939 321.848 222.965 357.29 225.043 363.536C227.887 372.061 211.37 469.131 211.37 469.131H183.154L190.713 381.749L136.113 322.247L81.5135 381.733L87.0703 446.05L89.0666 469.115H60.8726C60.8726 469.115 44.3609 372.045 47.1995 363.52C49.1465 357.646 74.6113 325.968 90.3792 306.69" stroke="#1C1C16" stroke-width="2" stroke-linejoin="round"/>
<path d="M235.714 92.1989L220.214 155.548L205.414 161.532L217.802 188.854C224.135 184.953 235.615 177.007 240.434 168.035C247.259 155.324 250.617 93.6415 250.617 93.6415L235.714 92.1989Z" stroke="#1C1C16" stroke-width="2" stroke-linejoin="round"/>
<path d="M48.8401 262.848C48.8401 271.466 65.1822 317.733 65.1822 317.733L66.6753 317.231L79.4898 312.908L72.4454 266.641L80.5891 250.247L58.3074 238.012C56.0048 242.16 48.8401 255.619 48.8401 262.848Z" stroke="#1C1C16" stroke-width="2" stroke-linejoin="round"/>
<path d="M204.533 159.592L169.793 175.663L155.245 172.45C153.352 188.843 134.56 196.155 134.56 196.155C134.56 196.155 118.803 188.739 116.938 172.302L78.1062 188.87L52.6797 234.919L58.3075 238.012L80.5893 250.264L84.9318 252.646L91.2105 238.165C91.4293 256.87 90.2589 289.597 88.5689 306.225C88.5689 306.225 104.681 311.143 134.56 311.143C164.438 311.143 179.812 302.46 179.812 302.46C179.61 300.46 179.435 298.296 179.298 296.012C178.204 278.826 178.713 254.318 179.61 238.143C179.785 235.258 179.949 232.548 180.13 230.056C180.266 227.679 180.414 225.515 180.551 223.608C180.852 219.663 181.098 216.832 181.191 215.542C181.245 215.023 181.256 214.75 181.256 214.75L218.737 190.909L217.802 188.843L205.414 161.521L204.533 159.592Z" stroke="#1C1C16" stroke-width="2" stroke-linejoin="round"/>
<path d="M250.65 93.2754C250.787 91.8492 250.896 90.6798 250.973 89.8164H251.098C251.098 89.8164 256.808 84.8601 257.754 81.1716C257.972 79.919 258.088 78.6506 258.099 77.3793" stroke="#1C1C16" stroke-width="2" stroke-linejoin="round"/>
<path d="M244.732 81.0896C242.993 76.2098 238.169 74.2262 238.169 74.2262C239.419 73.3592 240.581 72.3708 241.637 71.2754C242.873 69.3902 242.769 67.3629 240.958 67.1552C238.038 66.8219 230.567 70.27 229.982 73.1224C229.309 80.494 237.13 85.9202 237.13 85.9202C237.13 85.9202 237.157 85.9694 237.196 86.0568C237.196 86.0568 236.649 88.33 235.73 92.0677" stroke="#1C1C16" stroke-width="2" stroke-linejoin="round"/>
<path d="M230.042 76.6141L191.418 75.0786C190.014 75.0236 188.636 74.6809 187.369 74.0718C186.103 73.4627 184.975 72.6001 184.056 71.5376L160.019 43.7563C158.307 41.7907 157.41 39.2463 157.512 36.6426C157.614 34.0388 158.706 31.572 160.566 29.7455L186.747 3.96418C187.748 2.97603 188.941 2.20374 190.252 1.69521C191.564 1.18668 192.966 0.952744 194.371 1.00791L301.213 5.27018C303.933 5.37959 306.497 6.56352 308.343 8.56169C310.19 10.5599 311.166 13.2087 311.058 15.9259L308.919 69.4775C308.81 72.1947 307.625 74.7571 305.625 76.6016C303.625 78.446 300.974 79.4215 298.254 79.3136C298.254 79.3136 269.546 78.1168 242.156 77.0239M183.526 37.6799C183.582 36.3259 183.235 34.9857 182.529 33.8289C181.822 32.6721 180.788 31.7508 179.557 31.1816C178.326 30.6124 176.954 30.4209 175.614 30.6314C174.274 30.842 173.027 31.445 172.031 32.3641C171.034 33.2833 170.333 34.4772 170.016 35.7948C169.699 37.1124 169.78 38.4944 170.25 39.7657C170.719 41.037 171.556 42.1406 172.653 42.9366C173.751 43.7326 175.061 44.1852 176.416 44.2372C178.229 44.3038 179.995 43.6511 181.328 42.4216C182.661 41.192 183.453 39.4854 183.531 37.6744L183.526 37.6799Z" stroke="#1C1C16" stroke-width="2" stroke-linejoin="round"/>
<path d="M91.2105 238.165C91.2871 231.499 89.1267 216.706 89.1267 216.706" stroke="#1C1C16" stroke-width="2" stroke-linejoin="round"/>
<path d="M181.256 214.766C181.918 208.258 182.618 202.624 182.618 202.624" stroke="#1C1C16" stroke-width="2" stroke-linejoin="round"/>
<path d="M155.113 174.116L151.832 160.608C146.849 166.193 140.62 169.313 134.199 168.657C128.675 168.111 123.851 164.887 120.219 159.914L118.032 169.001C118.032 169.001 117.605 170.756 117.162 172.564" stroke="#1C1C16" stroke-width="2" stroke-linejoin="round"/>
<path d="M172.144 132.701C168.097 130.718 164.438 133.548 162.114 136.209C161.597 140.434 160.559 144.578 159.023 148.548C169.437 153.007 178.904 136.018 172.144 132.701Z" stroke="#1C1C16" stroke-width="2" stroke-linejoin="round"/>
<path d="M113.273 131.363C111.529 128.286 108.499 124.745 104.107 125.898C101.635 126.559 100.678 129.106 100.929 132.117C101.422 137.991 106.513 145.576 113.859 144.029C113.141 139.847 112.944 135.593 113.273 131.363Z" stroke="#1C1C16" stroke-width="2" stroke-linejoin="round"/>
<path d="M113.273 131.45C112.952 135.648 113.151 139.869 113.864 144.018C114.958 150.204 117.146 155.679 120.247 159.865C123.878 164.849 128.702 168.062 134.226 168.608C140.658 169.248 146.877 166.144 151.848 160.559C154.926 157.007 157.355 152.941 159.024 148.548C160.56 144.573 161.598 140.423 162.114 136.193V136.062" stroke="#1C1C16" stroke-width="2" stroke-linejoin="round"/>
<path d="M160.413 133.379C158.531 139.663 158.422 149.772 158.422 149.772C160.217 145.575 161.358 141.129 161.807 136.587C163.448 133.707 168.228 132.057 168.228 132.057C181.699 112.1 167.906 102.548 167.906 102.548L173.282 103.237C168.228 95.7507 157.421 90.084 157.421 90.084C157.421 90.084 135.736 79.8764 122.713 84.1551C109.691 88.4338 110.036 106.275 110.036 106.275C100.508 108.33 108.603 126.532 108.603 126.532H108.854C109.718 127.139 112.365 129.149 113.339 131.723C112.881 136.266 113.119 140.853 114.044 145.324C114.044 145.324 116.713 130.619 115.051 120.914C118.6 118.8 121.22 115.395 122.544 110.188C129.939 116.017 138.889 119.543 148.277 120.324L145.389 112.778C150.169 117.226 155.458 120.488 161.468 122.067C161.49 122.078 162.453 126.559 160.413 133.379Z" stroke="#1C1C16" stroke-width="2" stroke-linejoin="round"/>
<path d="M136.113 322.247L117.993 315.706" stroke="#1C1C16" stroke-width="2" stroke-linejoin="round"/>
<path d="M145.772 473.323L36.6929 483.727L37.5297 360.624L121.641 352.602L145.772 473.323Z" fill="#FA6D00" stroke="#1C1C16" stroke-width="2" stroke-miterlimit="10"/>
<path d="M104.134 360.072C104.134 360.072 97.2484 335.214 80.7204 333.148C64.1923 331.083 59.8442 364.296 59.8442 364.296" stroke="#1C1C16" stroke-width="2" stroke-miterlimit="10" stroke-linecap="round"/>
<path d="M117.676 483.251L8.49902 473.924L31.4316 352.973L115.62 360.165L117.676 483.251Z" fill="#1FA94A" stroke="#1C1C16" stroke-width="2" stroke-miterlimit="10"/>
<path d="M65.8714 400.022C66.8887 389.766 61.5343 382.443 52.6796 381.569C43.8249 380.695 37.2508 386.913 36.2117 397.088C35.1725 407.263 40.4558 414.662 49.3379 415.536C58.2199 416.41 64.8541 410.296 65.8714 400.022ZM43.3819 397.798C44.0601 390.99 47.4619 387.307 52.067 387.76C56.8472 388.236 59.2974 392.405 58.6301 399.307C57.9629 406.208 54.7251 409.815 49.945 409.345C45.3235 408.886 42.7201 404.607 43.3819 397.798ZM90.4174 414.782C81.5518 413.908 74.9887 420.132 73.955 430.301C72.9213 440.47 78.1991 447.875 87.0538 448.749C95.9085 449.623 102.603 443.416 103.615 433.241C104.627 423.066 99.2776 415.662 90.4229 414.782H90.4174ZM96.3461 432.52C95.6734 439.334 92.3535 443.022 87.6664 442.558C82.9792 442.093 80.436 437.913 81.1033 431.011C81.7705 424.11 85.0958 420.509 89.7884 420.973C94.4811 421.438 97.0297 425.711 96.3515 432.52H96.3461ZM89.783 385.87L41.3418 443.596L50.0161 444.459L98.5064 386.727L89.783 385.87Z" fill="white"/>
<path d="M97.0518 364.394C97.0518 364.394 94.7438 338.711 78.8556 333.706C62.9674 328.7 52.729 360.569 52.729 360.569" stroke="#1C1C16" stroke-width="2" stroke-miterlimit="10" stroke-linecap="round"/>
<path d="M80.2939 317.274L79.4899 312.903L66.6755 317.225C67.5177 319.411 68.0209 320.684 68.0209 320.684C65.2097 329.602 63.9682 333.405 66.8341 340.023C67.8787 343.629 77.9968 348.269 77.9968 348.269C78.046 352.247 82.2956 354.52 83.6848 352.411C85.074 350.301 86.2937 330.995 86.2937 330.995C89.3947 334.006 93.9998 337.105 94.9679 334.274C95.9359 331.443 80.2939 317.274 80.2939 317.274Z" fill="#E5927F" stroke="#1C1C16" stroke-width="2" stroke-miterlimit="10"/>
<path d="M77.9966 348.269L79.6319 335.613" stroke="#1C1C16" stroke-width="2" stroke-miterlimit="10"/>
<path d="M72.7739 345.487L74.5569 333.055" stroke="#1C1C16" stroke-width="2" stroke-miterlimit="10"/>
<path d="M67.644 341.465L69.5309 329.416" stroke="#1C1C16" stroke-width="2" stroke-miterlimit="10"/>
</svg>
