<svg width="130" height="23" viewBox="0 0 130 23" fill="none" xmlns="http://www.w3.org/2000/svg">
<path d="M10.0489 2.98662C10.3483 2.06531 11.6517 2.06531 11.9511 2.98662L13.2451 6.9694C13.379 7.38142 13.763 7.66038 14.1962 7.66038H18.3839C19.3527 7.66038 19.7554 8.9 18.9717 9.4694L15.5838 11.9309C15.2333 12.1855 15.0866 12.6369 15.2205 13.0489L16.5146 17.0317C16.8139 17.953 15.7595 18.7191 14.9757 18.1497L11.5878 15.6882C11.2373 15.4336 10.7627 15.4336 10.4122 15.6882L7.02426 18.1497C6.24054 18.7191 5.18607 17.953 5.48542 17.0317L6.7795 13.0489C6.91338 12.6369 6.76672 12.1855 6.41623 11.9309L3.02827 9.4694C2.24456 8.9 2.64734 7.66038 3.61606 7.66038H7.8038C8.23703 7.66038 8.62099 7.38142 8.75486 6.9694L10.0489 2.98662Z" fill="#1FA94A"/>
<path d="M37.0489 2.98662C37.3483 2.06531 38.6517 2.06531 38.9511 2.98662L40.2451 6.9694C40.379 7.38142 40.763 7.66038 41.1962 7.66038H45.3839C46.3527 7.66038 46.7554 8.9 45.9717 9.4694L42.5838 11.9309C42.2333 12.1855 42.0866 12.6369 42.2205 13.0489L43.5146 17.0317C43.8139 17.953 42.7595 18.7191 41.9757 18.1497L38.5878 15.6882C38.2373 15.4336 37.7627 15.4336 37.4122 15.6882L34.0243 18.1497C33.2405 18.7191 32.1861 17.953 32.4854 17.0317L33.7795 13.0489C33.9134 12.6369 33.7667 12.1855 33.4162 11.9309L30.0283 9.4694C29.2446 8.9 29.6473 7.66038 30.6161 7.66038H34.8038C35.237 7.66038 35.621 7.38142 35.7549 6.9694L37.0489 2.98662Z" fill="#1FA94A"/>
<path d="M64.0489 2.98662C64.3483 2.06531 65.6517 2.06531 65.9511 2.98662L67.2451 6.9694C67.379 7.38142 67.763 7.66038 68.1962 7.66038H72.3839C73.3527 7.66038 73.7554 8.9 72.9717 9.4694L69.5838 11.9309C69.2333 12.1855 69.0866 12.6369 69.2205 13.0489L70.5146 17.0317C70.8139 17.953 69.7595 18.7191 68.9757 18.1497L65.5878 15.6882C65.2373 15.4336 64.7627 15.4336 64.4122 15.6882L61.0243 18.1497C60.2405 18.7191 59.1861 17.953 59.4854 17.0317L60.7795 13.0489C60.9134 12.6369 60.7667 12.1855 60.4162 11.9309L57.0283 9.4694C56.2446 8.9 56.6473 7.66038 57.6161 7.66038H61.8038C62.237 7.66038 62.621 7.38142 62.7549 6.9694L64.0489 2.98662Z" fill="#1FA94A"/>
<path d="M91.0489 2.98662C91.3483 2.06531 92.6517 2.06531 92.9511 2.98662L94.2451 6.9694C94.379 7.38142 94.763 7.66038 95.1962 7.66038H99.3839C100.353 7.66038 100.755 8.9 99.9717 9.4694L96.5838 11.9309C96.2333 12.1855 96.0866 12.6369 96.2205 13.0489L97.5146 17.0317C97.8139 17.953 96.7595 18.7191 95.9757 18.1497L92.5878 15.6882C92.2373 15.4336 91.7627 15.4336 91.4122 15.6882L88.0243 18.1497C87.2405 18.7191 86.1861 17.953 86.4854 17.0317L87.7795 13.0489C87.9134 12.6369 87.7667 12.1855 87.4162 11.9309L84.0283 9.4694C83.2446 8.9 83.6473 7.66038 84.6161 7.66038H88.8038C89.237 7.66038 89.621 7.38142 89.7549 6.9694L91.0489 2.98662Z" fill="#1FA94A"/>
<path d="M118.049 2.98662C118.348 2.06531 119.652 2.06531 119.951 2.98662L121.245 6.9694C121.379 7.38142 121.763 7.66038 122.196 7.66038H126.384C127.353 7.66038 127.755 8.9 126.972 9.4694L123.584 11.9309C123.233 12.1855 123.087 12.6369 123.22 13.0489L124.515 17.0317C124.814 17.953 123.759 18.7191 122.976 18.1497L119.588 15.6882C119.237 15.4336 118.763 15.4336 118.412 15.6882L115.024 18.1497C114.241 18.7191 113.186 17.953 113.485 17.0317L114.78 13.0489C114.913 12.6369 114.767 12.1855 114.416 11.9309L111.028 9.4694C110.245 8.9 110.647 7.66038 111.616 7.66038H115.804C116.237 7.66038 116.621 7.38142 116.755 6.9694L118.049 2.98662Z" fill="#1FA94A"/>
</svg>
